<svg xmlns="http://www.w3.org/2000/svg" viewBox="0 0 272.87 305.42"><defs><style>.cls-1{fill:#fff;}.cls-2{fill:#043087;}.cls-3{fill:none;stroke:#fff;stroke-miterlimit:10;stroke-width:2px;}.cls-4{fill:#1a1a1a;}</style></defs><g id="Layer_2" data-name="Layer 2"><g id="english"><path class="cls-1" d="M226.34,184.94s-47,44,1,62l-90.4,1.8,25.4-56.8Z"/><path class="cls-1" d="M45.94,184.94s47,44-1,62l90.4,1.8-25.4-56.8Z"/><path class="cls-2" d="M136.44,269.87a8.94,8.94,0,0,1-6.37-2.62L5.62,142.8a9,9,0,0,1,0-12.73L130.07,5.62a9,9,0,0,1,12.73,0L267.25,130.07a9,9,0,0,1,0,12.73L142.8,267.25A8.93,8.93,0,0,1,136.44,269.87Z"/><path class="cls-1" d="M136.44,6a6,6,0,0,1,4.24,1.74L265.13,132.19a6,6,0,0,1,0,8.49L140.68,265.13a6,6,0,0,1-8.49,0L7.74,140.68a6,6,0,0,1,0-8.49L132.19,7.74A6,6,0,0,1,136.44,6m0-6A12,12,0,0,0,128,3.5L3.5,128a12,12,0,0,0,0,17L128,269.37a12,12,0,0,0,17,0L269.37,144.92a12,12,0,0,0,0-17L144.92,3.5A12,12,0,0,0,136.44,0Z"/><path class="cls-1" d="M109.21,129.55,88.66,150.09,68.26,170.5,50.75,153,153.44,50.29c.37.3.7.52,1,.79,13,13,26.16,26,39,39.16,12.24,12.59,15.14,32.47,7.49,48.31A43.62,43.62,0,0,1,150.3,162.2a42.18,42.18,0,0,1-19.38-11c-6.73-6.66-13.4-13.39-20.1-20.08C110.34,130.67,109.85,130.19,109.21,129.55Zm16.68-16.41,1.5,1.49c5.55,5.56,11.08,11.13,16.68,16.65a33.82,33.82,0,0,0,4.37,3.65c7.42,5.18,18.32,4.47,24.72-1.53,9-8.4,9.16-21.31.46-30Q164.82,94.54,156,85.73l-1.33-1.34Z"/><path class="cls-3" d="M143.79,147.21s-16.42,10.36-12.09,23.1"/><path class="cls-3" d="M165.05,173.74c3.15-7.35-.92-15.63-.92-15.63"/><path class="cls-3" d="M177.62,153.56c-.62,10.07,14.74,9.3,14.74,9.3"/><path class="cls-3" d="M195.26,131.21s12.74,3.28,14.18,12.61"/><path class="cls-3" d="M199.16,118.11s14.11.61,17.56,7.53"/><path class="cls-3" d="M192.46,140.78s2.26,12,11.65,15.45"/><path class="cls-3" d="M161.29,152.07s-9.37,4.07-12.52,19"/><path class="cls-1" d="M68,148s4.93-18.95-.74-18.27a6.92,6.92,0,0,0-5.88,3.9c-1.76,3-3.74,9.06-12.73,15.42s-6.54,15.85-5.21,19,6.25,10.54,14.81,10.36,11.1-2.69,12.76-4.13,6.41-4.26,4.75-11.08C74.46,157.9,68,148,68,148Z"/><path class="cls-3" d="M124.67,136.51s1.7,14-4.57,18.55"/><rect class="cls-1" x="37.7" y="241.79" width="197" height="62.13"/><path class="cls-4" d="M233.21,243.29v59.13h-194V243.29h194m3-3h-200v65.13h200V240.29Z"/><path d="M42.55,277.7h5a9.44,9.44,0,0,1,2.58.26,4.49,4.49,0,0,1,2.05,1.25,5.82,5.82,0,0,1,1.3,2.2,10,10,0,0,1,.45,3.22,8.86,8.86,0,0,1-.42,2.89,6,6,0,0,1-1.46,2.4A4.72,4.72,0,0,1,50.14,291a8.3,8.3,0,0,1-2.43.29H42.55Zm2.74,2.3v9h2.05a7.88,7.88,0,0,0,1.66-.13,2.55,2.55,0,0,0,1.11-.57,2.78,2.78,0,0,0,.72-1.31,8.7,8.7,0,0,0,.28-2.49,8,8,0,0,0-.28-2.43,3,3,0,0,0-.78-1.31,2.56,2.56,0,0,0-1.27-.64,12,12,0,0,0-2.25-.13Z"/><path d="M55.66,286.23a5.4,5.4,0,0,1,.63-2.51,4.47,4.47,0,0,1,1.82-1.86,5.43,5.43,0,0,1,2.62-.64,4.93,4.93,0,0,1,3.66,1.45,5,5,0,0,1,1.43,3.67,5.09,5.09,0,0,1-1.44,3.71,4.87,4.87,0,0,1-3.63,1.47,5.7,5.7,0,0,1-2.59-.61,4.23,4.23,0,0,1-1.87-1.8A6.07,6.07,0,0,1,55.66,286.23Zm2.67.14a3.29,3.29,0,0,0,.69,2.25,2.23,2.23,0,0,0,1.72.78,2.19,2.19,0,0,0,1.71-.78,3.33,3.33,0,0,0,.69-2.27,3.24,3.24,0,0,0-.69-2.22,2.19,2.19,0,0,0-1.71-.78,2.23,2.23,0,0,0-1.72.78A3.26,3.26,0,0,0,58.33,286.37Z"/><path d="M76.83,291.3H74.22v-5a7.9,7.9,0,0,0-.17-2.07,1.41,1.41,0,0,0-.54-.72,1.5,1.5,0,0,0-.91-.26,2.06,2.06,0,0,0-1.21.37,1.85,1.85,0,0,0-.74,1,8.61,8.61,0,0,0-.2,2.26v4.47h-2.6v-9.85h2.42v1.44a4,4,0,0,1,3.24-1.67,4,4,0,0,1,1.58.31,2.55,2.55,0,0,1,1.08.8,2.67,2.67,0,0,1,.51,1.09,7.8,7.8,0,0,1,.15,1.75Z"/><path d="M79.41,277.73H82v1.87a6.47,6.47,0,0,1-.19,1.78,2.71,2.71,0,0,1-.74,1.18,3.74,3.74,0,0,1-1.38.81l-.51-1.07a1.87,1.87,0,0,0,1.48-2H79.41Z"/><path d="M89.27,281.45v2.07H87.49v4a9,9,0,0,0,.05,1.41.58.58,0,0,0,.23.33.72.72,0,0,0,.44.13,3.31,3.31,0,0,0,1.05-.25l.22,2a5.18,5.18,0,0,1-2.06.39,3.23,3.23,0,0,1-1.27-.24,1.75,1.75,0,0,1-.83-.61,2.39,2.39,0,0,1-.37-1,13.61,13.61,0,0,1-.08-1.83v-4.3h-1.2v-2.07h1.2v-2L87.49,278v3.48Z"/><path d="M96.28,281.45h2.43v1.44a3.69,3.69,0,0,1,1.28-1.2,3.54,3.54,0,0,1,1.79-.47,3.76,3.76,0,0,1,2.92,1.35,5.46,5.46,0,0,1,1.19,3.75,5.62,5.62,0,0,1-1.2,3.83,3.78,3.78,0,0,1-2.93,1.37,3.45,3.45,0,0,1-1.48-.32,5,5,0,0,1-1.39-1.12v5H96.28Zm2.58,4.75a3.81,3.81,0,0,0,.66,2.46,2,2,0,0,0,1.6.79,1.89,1.89,0,0,0,1.52-.73,3.75,3.75,0,0,0,.6-2.39,3.59,3.59,0,0,0-.62-2.3,1.94,1.94,0,0,0-1.54-.75,2,2,0,0,0-1.59.74A3.28,3.28,0,0,0,98.86,286.2Z"/><path d="M109.91,284.45l-2.37-.43a3.71,3.71,0,0,1,1.38-2.11,5,5,0,0,1,2.89-.69,6.17,6.17,0,0,1,2.6.42,2.55,2.55,0,0,1,1.2,1A5.43,5.43,0,0,1,116,285l0,3a11.11,11.11,0,0,0,.12,1.92,5.86,5.86,0,0,0,.47,1.32h-2.58c-.06-.18-.15-.43-.25-.77a2.83,2.83,0,0,0-.09-.31,4.74,4.74,0,0,1-1.43,1,4.22,4.22,0,0,1-1.62.32,3.37,3.37,0,0,1-2.4-.83,2.75,2.75,0,0,1-.88-2.08,2.84,2.84,0,0,1,.4-1.49,2.59,2.59,0,0,1,1.12-1,8.24,8.24,0,0,1,2.07-.61,14.21,14.21,0,0,0,2.54-.64v-.26a1.37,1.37,0,0,0-.37-1.07,2.21,2.21,0,0,0-1.41-.32,1.55,1.55,0,0,0-1.71,1.23Zm3.49,2.12q-.51.17-1.59.39a4.87,4.87,0,0,0-1.42.46,1.09,1.09,0,0,0-.51.92,1.27,1.27,0,0,0,.41.94,1.41,1.41,0,0,0,1,.4,2.22,2.22,0,0,0,1.34-.46,1.57,1.57,0,0,0,.62-.86,5,5,0,0,0,.11-1.27Z"/><path d="M121,291.3h-2.6v-9.85h2.42v1.4a4,4,0,0,1,1.12-1.31,2,2,0,0,1,1.12-.32,3.38,3.38,0,0,1,1.72.49L124,284a2.26,2.26,0,0,0-1.22-.43,1.44,1.44,0,0,0-.93.3,2.14,2.14,0,0,0-.6,1.09,15.86,15.86,0,0,0-.22,3.3Z"/><path d="M125.83,291.3V277.7h2.61v7.21l3.05-3.46h3.21L131.33,285l3.61,6.26h-2.81l-2.48-4.43-1.21,1.27v3.16Z"/><path d="M141.77,291.3V277.7h2.6v13.6Z"/><path d="M147.05,280.11V277.7h2.6v2.41Zm0,11.19v-9.85h2.6v9.85Z"/><path d="M152.23,291.3V277.7h2.61v7.21l3-3.46h3.21L157.73,285l3.61,6.26h-2.81l-2.48-4.43-1.21,1.27v3.16Z"/><path d="M168.6,288.16l2.6.44a4.27,4.27,0,0,1-1.59,2.17,4.62,4.62,0,0,1-2.7.75,4.4,4.4,0,0,1-3.8-1.68,5.64,5.64,0,0,1-1-3.39,5.45,5.45,0,0,1,1.28-3.84,4.19,4.19,0,0,1,3.24-1.39,4.41,4.41,0,0,1,3.47,1.45,6.4,6.4,0,0,1,1.21,4.45H164.8a2.66,2.66,0,0,0,.63,1.81,2,2,0,0,0,1.51.64,1.63,1.63,0,0,0,1-.33A2.15,2.15,0,0,0,168.6,288.16Zm.15-2.63a2.51,2.51,0,0,0-.59-1.72,1.76,1.76,0,0,0-1.35-.59,1.79,1.79,0,0,0-1.41.62,2.39,2.39,0,0,0-.55,1.69Z"/><path d="M180.69,284.45l-2.37-.43a3.7,3.7,0,0,1,1.37-2.11,5,5,0,0,1,2.9-.69,6.17,6.17,0,0,1,2.6.42,2.6,2.6,0,0,1,1.2,1,5.47,5.47,0,0,1,.34,2.34l0,3a11.11,11.11,0,0,0,.12,1.92,5.86,5.86,0,0,0,.47,1.32h-2.58c-.07-.18-.15-.43-.25-.77a2.83,2.83,0,0,0-.09-.31,4.87,4.87,0,0,1-1.43,1,4.22,4.22,0,0,1-1.62.32,3.35,3.35,0,0,1-2.4-.83,2.71,2.71,0,0,1-.88-2.08,2.75,2.75,0,0,1,.4-1.49,2.59,2.59,0,0,1,1.12-1,8.24,8.24,0,0,1,2.07-.61,14,14,0,0,0,2.53-.64v-.26a1.33,1.33,0,0,0-.37-1.07,2.16,2.16,0,0,0-1.4-.32,1.55,1.55,0,0,0-1.71,1.23Zm3.48,2.12a15.65,15.65,0,0,1-1.58.39,4.76,4.76,0,0,0-1.42.46,1.09,1.09,0,0,0-.51.92,1.24,1.24,0,0,0,.41.94,1.39,1.39,0,0,0,1,.4,2.26,2.26,0,0,0,1.34-.46,1.62,1.62,0,0,0,.62-.86,5.13,5.13,0,0,0,.1-1.27Z"/><path d="M203.62,291.3H201.2v-1.45a4,4,0,0,1-1.43,1.26,3.69,3.69,0,0,1-1.65.41,3.77,3.77,0,0,1-2.91-1.37,5.54,5.54,0,0,1-1.21-3.82,5.44,5.44,0,0,1,1.18-3.8,3.82,3.82,0,0,1,3-1.31A3.66,3.66,0,0,1,201,282.6v-4.9h2.61Zm-7-5.14a4.51,4.51,0,0,0,.44,2.28,2,2,0,0,0,1.76,1,1.91,1.91,0,0,0,1.53-.76,3.55,3.55,0,0,0,.63-2.29,3.88,3.88,0,0,0-.61-2.45,2,2,0,0,0-1.57-.74,1.94,1.94,0,0,0-1.55.73A3.35,3.35,0,0,0,196.66,286.16Z"/><path d="M206.19,280.11V277.7h2.61v2.41Zm0,11.19v-9.85h2.61v9.85Z"/><path d="M220.06,284.36l-2.57.46a1.87,1.87,0,0,0-.59-1.16,1.78,1.78,0,0,0-1.19-.39,2,2,0,0,0-1.56.68,3.45,3.45,0,0,0-.58,2.25,4,4,0,0,0,.59,2.47,2,2,0,0,0,1.58.73A1.78,1.78,0,0,0,217,289a2.49,2.49,0,0,0,.67-1.45l2.56.44a4.6,4.6,0,0,1-1.53,2.66,4.76,4.76,0,0,1-3,.9,4.48,4.48,0,0,1-3.44-1.36,6.21,6.21,0,0,1,0-7.58,4.6,4.6,0,0,1,3.49-1.36,4.73,4.73,0,0,1,2.86.78A4.26,4.26,0,0,1,220.06,284.36Z"/><path d="M221.94,291.3V277.7h2.61v7.21l3-3.46h3.21L227.44,285l3.61,6.26h-2.81l-2.48-4.43-1.21,1.27v3.16Z"/><path d="M104.15,250.89a4.87,4.87,0,0,1,4.06,1.86Q110,254.94,110,260t-1.76,7.3a4.86,4.86,0,0,1-4,1.84,5.11,5.11,0,0,1-4.21-2q-1.6-2-1.6-7.16c0-3.37.58-5.8,1.76-7.28A4.88,4.88,0,0,1,104.15,250.89Zm0,2.85a1.71,1.71,0,0,0-1.11.39,2.67,2.67,0,0,0-.76,1.42,20.11,20.11,0,0,0-.35,4.48,19.7,19.7,0,0,0,.31,4.33,3.1,3.1,0,0,0,.8,1.57,1.73,1.73,0,0,0,1.11.39,1.7,1.7,0,0,0,1.11-.4,2.59,2.59,0,0,0,.76-1.42,19.88,19.88,0,0,0,.35-4.47,18.86,18.86,0,0,0-.32-4.32,3,3,0,0,0-.8-1.58A1.7,1.7,0,0,0,104.15,253.74Z"/><path d="M118.05,250.89a4.89,4.89,0,0,1,4.07,1.86q1.74,2.19,1.74,7.28t-1.75,7.3a4.87,4.87,0,0,1-4.06,1.84,5.12,5.12,0,0,1-4.21-2c-1.06-1.34-1.6-3.73-1.6-7.16s.59-5.8,1.76-7.28A4.88,4.88,0,0,1,118.05,250.89Zm0,2.85a1.75,1.75,0,0,0-1.11.39,2.67,2.67,0,0,0-.75,1.42,28.73,28.73,0,0,0,0,8.81,3,3,0,0,0,.8,1.57,1.7,1.7,0,0,0,1.1.39,1.67,1.67,0,0,0,1.11-.4,2.59,2.59,0,0,0,.76-1.42,19.15,19.15,0,0,0,.36-4.47,19.47,19.47,0,0,0-.32-4.32,3.11,3.11,0,0,0-.8-1.58A1.71,1.71,0,0,0,118.05,253.74Z"/><path d="M133.45,264.09v-3.43h6.73v3.43Z"/><path d="M160,265.67v3.19h-12a8.25,8.25,0,0,1,1.17-3.42,22.33,22.33,0,0,1,3.86-4.29,25.64,25.64,0,0,0,2.84-2.93,3.8,3.8,0,0,0,.71-2.1,2.4,2.4,0,0,0-.62-1.77,2.64,2.64,0,0,0-3.41,0,3.32,3.32,0,0,0-.73,2.15l-3.42-.34a5.6,5.6,0,0,1,1.92-4.07,6.42,6.42,0,0,1,4-1.23,5.85,5.85,0,0,1,4.17,1.43,4.71,4.71,0,0,1,1.51,3.55,6.11,6.11,0,0,1-.43,2.3,9.35,9.35,0,0,1-1.38,2.29,21.16,21.16,0,0,1-2.24,2.28c-1.09,1-1.77,1.66-2.06,2a6.05,6.05,0,0,0-.7.95Z"/><path d="M169,268.86v-3.6h-7.33v-3l7.77-11.37h2.88v11.35h2.22v3h-2.22v3.6Zm0-6.62v-6.11l-4.12,6.11Z"/></g></g></svg>