<svg xmlns="http://www.w3.org/2000/svg" viewBox="0 0 526 526"><defs><style>.cls-1{fill:#fff;}.cls-2{fill:none;stroke:#d33e28;stroke-width:60px;}.cls-3{fill:#885742;}.cls-4{fill:#35220b;}</style></defs><g id="Layer_2" data-name="Layer 2"><g id="Layer_2-2" data-name="Layer 2"><circle id="bg" class="cls-1" cx="263" cy="263" r="258.22"/><circle class="cls-2" cx="263" cy="263" r="233"/><path class="cls-1" d="M48.73,137.73l2-3.39,17.56,10.17c7,4,7.13,8.7,4.52,13.21A12.45,12.45,0,0,1,70.05,161l-2.47-2.1a9.34,9.34,0,0,0,2.15-2.55c1.76-3,1.43-5.62-3.71-8.59Z"/><path class="cls-1" d="M77.65,123.12l-6.78,9.65,8.94,6.29,7.56-10.75,2.69,1.89-9.81,14L55.43,126.71l9.42-13.4,2.69,1.89-7.17,10.2,7.85,5.51L75,121.26Z"/><path class="cls-1" d="M107.11,108.45a28.11,28.11,0,0,1-4.94,8.07c-3,3.43-6.44,5.48-10.53,5.81-3.62.28-7.72-1.2-11.25-4.34-6.73-6-7.55-15.08-.79-22.68a18.71,18.71,0,0,1,6.07-4.73l1.76,2.83A15.84,15.84,0,0,0,82,97.56c-4.9,5.51-4.67,12.16,1,17.22s12.23,4.67,16.93-.61a12.83,12.83,0,0,0,2.86-4.44l-6.76-6-4.1,4.6-2.35-2.09,6.64-7.47Z"/><path class="cls-1" d="M100.62,75.51a55.66,55.66,0,0,1,6.15-5.65c4.42-3.48,8.37-4.94,12-4.64s7.06,2,10.1,5.91,4.37,8,3.87,12-3.2,8.08-7.83,11.73a62,62,0,0,1-5.81,4.12ZM120.3,94.14a24.05,24.05,0,0,0,3.25-2.27c6.57-5.18,7.25-11.67,2.17-18.1-4.39-5.65-10.39-6.71-16.89-1.58a21.71,21.71,0,0,0-3.35,3.16Z"/><path class="cls-1" d="M126.9,55.75A40.64,40.64,0,0,1,133,51.31c3.57-2.18,6.28-2.93,8.78-2.45a7.51,7.51,0,0,1,5,3.68,7.94,7.94,0,0,1-.85,9.58l.07.12c2.42-.53,4.73.59,7,2.91,3,3.09,5.18,5.22,6.33,5.89l-3.46,2.11a39.57,39.57,0,0,1-5.5-5.14c-2.95-3.11-5.15-3.61-8.26-1.87L139,68.06l6.84,11.22-3.35,2Zm10.53,9.77,3.42-2.08c3.57-2.18,4.65-5.52,2.84-8.48-2-3.35-5.34-3.33-8.9-1.22a16.16,16.16,0,0,0-3.12,2.32Z"/><path class="cls-1" d="M153.19,40.39l13.65,27.08-3.5,1.76L149.69,42.15Z"/><path class="cls-1" d="M168,37.27l-8.53,3.52-1.26-3.08L179,29.16l1.27,3.08-8.57,3.53,10.28,25-3.67,1.51Z"/><path class="cls-1" d="M204.36,38.27l-11.3,3.37,3.12,10.48,12.59-3.75.94,3.14-16.34,4.87-8.66-29.06,15.69-4.68.94,3.15L189.4,29.35l2.73,9.18,11.3-3.36Z"/><path class="cls-1" d="M208.74,21.05a39.65,39.65,0,0,1,7.27-2c4.12-.77,6.91-.51,9.08.82a7.56,7.56,0,0,1,3.41,5.23,8,8,0,0,1-4.2,8.65l0,.14c2.45.36,4.22,2.23,5.5,5.19,1.75,4,3,6.72,3.83,7.76l-4,.74a39.21,39.21,0,0,1-3.32-6.75c-1.65-3.95-3.53-5.2-7-4.68l-3.63.68,2.41,12.91-3.85.72Zm6.39,12.86,3.93-.74c4.12-.77,6.31-3.51,5.67-6.91-.72-3.85-3.82-5-7.9-4.3A15.86,15.86,0,0,0,213.09,23Z"/><path class="cls-1" d="M250.07,15.16l1.79,30.28-3.91.23-1.78-30.28Z"/><path class="cls-1" d="M274.1,35.82l-3.83,9.29-4-.29,12.45-29.51,4.72.33,8.15,31-4.17-.3-2.55-9.75Zm10.14-2.34-2.34-8.92c-.53-2-.85-3.85-1.17-5.63h-.09c-.58,1.76-1.21,3.57-1.92,5.37l-3.59,8.54Z"/><path class="cls-1" d="M300.88,17.6l3.85.71-4.87,26.6,12.75,2.33L312,50.48l-16.6-3Z"/><path class="cls-1" d="M324.23,22.34,328,23.42l-7.41,26L333.05,53l-.9,3.16-16.23-4.62Z"/><path class="cls-1" d="M355.75,50.06l-11-4.33-4,10.17L353,60.73l-1.2,3.06-15.87-6.27,11.15-28.21,15.24,6-1.21,3.05L349.5,33.8,346,42.72l11,4.33Z"/><path class="cls-1" d="M373.91,64.39,366.34,71l-3.48-2.07,24.31-20.85,4.07,2.41L384.7,81.86l-3.6-2.13,2.07-9.86ZM384,66.82l1.89-9c.43-2,1-3.83,1.46-5.57l-.07,0c-1.31,1.32-2.67,2.66-4.12,4l-7,6Z"/><path class="cls-1" d="M387.69,84l18.63-23.94,3.37,2.63-1.75,18.08a86.64,86.64,0,0,1-1.76,11.12l.1,0c2.2-3.42,4.4-6.39,7.3-10.12l7.79-10,2.91,2.27L405.66,98l-3.13-2.43,1.86-18.06A95.52,95.52,0,0,1,406.13,66L406,66c-2.18,3.16-4.34,6.09-7.44,10.07l-8,10.22Z"/><path class="cls-1" d="M431.49,81a54.76,54.76,0,0,1,6.29,5.49c3.94,4,5.82,7.78,5.92,11.41s-1.27,7.24-4.76,10.68-7.49,5.23-11.47,5.16-8.38-2.29-12.52-6.49a64.81,64.81,0,0,1-4.73-5.32Zm-16.37,21.6a23.77,23.77,0,0,0,2.62,3c5.87,6,12.39,5.92,18.23.18,5.13-5,5.53-11.06-.28-17a22.12,22.12,0,0,0-3.51-3Z"/><path class="cls-1" d="M454,104.92a40,40,0,0,1,5.08,5.56c2.56,3.32,3.6,5.92,3.4,8.46a7.54,7.54,0,0,1-3.1,5.41,8,8,0,0,1-9.62.2l-.11.08c.79,2.35-.07,4.77-2.12,7.27-2.75,3.36-4.62,5.72-5.16,6.93l-2.48-3.2a39.14,39.14,0,0,1,4.5-6c2.77-3.27,3-5.51,1-8.41l-2.25-2.92-10.41,8-2.39-3.1Zm-8.55,11.53,2.45,3.17c2.55,3.32,6,4,8.73,1.9,3.1-2.39,2.72-5.68.23-9a15.84,15.84,0,0,0-2.65-2.85Z"/><path class="cls-1" d="M464.85,148.15l-6.19-10-9.31,5.75,6.9,11.18-2.79,1.73-9-14.52,25.81-15.93,8.61,13.94-2.8,1.73-6.55-10.61-8.16,5,6.2,10Z"/><path class="cls-1" d="M71.55,396c-8.91,5.45-16.94,2.92-21-3.68-4.17-6.83-1.81-14.87,6-19.66,8.22-5,16.71-3.2,20.94,3.71S79.22,391.31,71.55,396Zm-12.7-19.82c-5.53,3.38-8.65,9.41-5.43,14.67s9.94,5.31,15.81,1.72c5.15-3.15,8.88-9.12,5.48-14.69S64.53,372.71,58.85,376.18Z"/><path class="cls-1" d="M78.86,427.79a28.39,28.39,0,0,1-7.16-6.18c-2.89-3.56-4.37-7.24-4-11.33.31-3.61,2.43-7.42,6.1-10.4,7-5.67,16.1-5,22.51,2.88A18.66,18.66,0,0,1,100,409.5l-3.07,1.28a15.8,15.8,0,0,0-3.22-6C89,399,82.41,398.19,76.51,403s-6.58,11.31-2.13,16.8a13,13,0,0,0,3.92,3.54l7-5.7-3.88-4.79,2.44-2,6.3,7.76Z"/><path class="cls-1" d="M111.92,420.66a46,46,0,0,1,6,4.55c2.9,2.56,4.42,5.12,4.69,7.52a8.15,8.15,0,0,1-2.22,6.51,8.89,8.89,0,0,1-6.05,3.3c-3,.28-6.28-1.12-9.14-3.66a12.78,12.78,0,0,1-2.18-2.29L95,445.69,92,443.09Zm-6.77,13.54a13.3,13.3,0,0,0,2.21,2.39c3.54,3.13,7.22,3.32,10,.19s1.82-6.33-1.41-9.19a16.63,16.63,0,0,0-3-2.21Z"/><path class="cls-1" d="M118.79,453.22l-8.14,5.88-3.29-2.38L133.5,438.2l3.83,2.77-9.41,30.64-3.39-2.46,3-9.63Zm9.85,3.35,2.72-8.81c.61-2,1.31-3.73,2-5.41l-.07-.05c-1.42,1.19-2.91,2.39-4.46,3.55l-7.56,5.36Z"/><path class="cls-1" d="M148.88,449.26a41.31,41.31,0,0,1,6.87,3.13c3.65,2.05,5.63,4,6.44,6.45a7.54,7.54,0,0,1-.73,6.19,8,8,0,0,1-8.77,4l-.07.12c1.65,1.85,1.81,4.41.89,7.51-1.2,4.18-2,7.08-2,8.41l-3.54-2a40,40,0,0,1,1.78-7.31c1.26-4.09.62-6.26-2.42-8.11l-3.22-1.81-6.42,11.47-3.42-1.92Zm-3.34,14,3.5,2c3.65,2.05,7.09,1.34,8.78-1.68,1.92-3.42.28-6.29-3.31-8.36a17,17,0,0,0-3.55-1.58Z"/><path class="cls-1" d="M169.91,460.2l3.6,1.53-5.71,13.46.12.05c1.21-.76,2.37-1.44,3.46-2.05l13-6.86,4.47,1.9-15.14,7.56,4.08,20.7-4.27-1.81-3.38-17.62L166.18,479l-4.52,10.65-3.6-1.53Z"/><path class="cls-1" d="M202.38,489.16l-11.27-3.44-3.19,10.46L200.49,500l-1,3.15-16.32-5,8.85-29L207.73,474l-1,3.14-11.92-3.64-2.8,9.17,11.28,3.44Z"/><path class="cls-1" d="M212.81,475.62a40.33,40.33,0,0,1,7.5.81c4.11.79,6.62,2.06,8.15,4.09a7.57,7.57,0,0,1,1.25,6.11,8,8,0,0,1-7.08,6.52l0,.13c2.14,1.24,3.1,3.63,3.21,6.86.17,4.34.32,7.35.72,8.62l-4-.77a39.68,39.68,0,0,1-.61-7.5c-.09-4.28-1.38-6.14-4.85-6.94l-3.62-.7L211,505.75l-3.85-.74ZM214,489.93l3.94.76c4.11.79,7.15-1,7.81-4.36.74-3.84-1.72-6.06-5.78-6.89a15.8,15.8,0,0,0-3.86-.38Z"/><path class="cls-1" d="M250.52,496.76l-11.74-1-.95,10.89,13.09,1.14-.28,3.27-17-1.48,2.62-30.21,16.32,1.42L252.3,484,239.89,483l-.83,9.55,11.74,1Z"/><path class="cls-1" d="M257.93,481.35a40.34,40.34,0,0,1,7.51-.75c4.18-.07,6.89.65,8.81,2.33a7.56,7.56,0,0,1,2.48,5.72,8,8,0,0,1-5.59,7.83v.14c2.36.77,3.79,2.91,4.56,6,1.06,4.22,1.83,7.13,2.47,8.29l-4.05.07a40.69,40.69,0,0,1-2.14-7.21c-1-4.17-2.61-5.72-6.17-5.8l-3.69.06.21,13.14-3.91.06Zm4.14,13.75,4-.07c4.18-.06,6.8-2.4,6.74-5.87-.06-3.91-2.92-5.57-7.06-5.55a16.21,16.21,0,0,0-3.87.42Z"/><path class="cls-1" d="M291.44,479.72a55.12,55.12,0,0,1,8.08-2.13c5.53-1,9.7-.47,12.76,1.48s5.29,5.12,6.18,9.94.13,9.13-2.15,12.38-6.6,5.66-12.4,6.73a62.63,62.63,0,0,1-7.05.93Zm8.72,25.66a24,24,0,0,0,3.93-.5c8.24-1.52,11.86-6.94,10.37-15-1.25-7-6.06-10.78-14.2-9.27a21.59,21.59,0,0,0-4.44,1.23Z"/><path class="cls-1" d="M339.86,484.17l-11.27,3.49,3.23,10.44,12.56-3.88,1,3.14-16.3,5-9-29,15.65-4.84,1,3.14L324.8,475.4l2.83,9.16,11.27-3.48Z"/><path class="cls-1" d="M340.88,467.12a40.76,40.76,0,0,1,6.66-3.53c3.85-1.65,6.63-2,9-1.18a7.54,7.54,0,0,1,4.46,4.35,8,8,0,0,1-2.21,9.37l.06.12c2.47-.17,4.6,1.26,6.5,3.87,2.58,3.5,4.39,5.91,5.43,6.74l-3.72,1.59c-.79-.59-2.44-2.72-4.72-5.86-2.47-3.49-4.58-4.3-7.9-3L351.09,481l5.17,12.08-3.6,1.54Zm9,11.16,3.68-1.57c3.85-1.65,5.38-4.81,4-8-1.54-3.6-4.82-4.06-8.64-2.47a16.06,16.06,0,0,0-3.42,1.86Z"/><path class="cls-1" d="M376.61,448.91l3.35-2,10.49,17.37c4.17,6.89,2.06,11.06-2.41,13.76a12.65,12.65,0,0,1-4,1.54l-1.16-3a9.49,9.49,0,0,0,3.12-1.2c3-1.82,4-4.23.89-9.32Z"/><path class="cls-1" d="M407.46,447.2l-9.52,7L404.4,463l10.6-7.76,1.94,2.65L403.18,468l-17.91-24.48,13.22-9.67,1.94,2.66-10.06,7.35,5.66,7.74,9.52-7Z"/><path class="cls-1" d="M439.18,436.26a28.23,28.23,0,0,1-5.71,7.54c-3.37,3.12-6.94,4.82-11.05,4.75-3.63-.08-7.57-1.95-10.77-5.43-6.11-6.67-6-15.75,1.44-22.65a18.77,18.77,0,0,1,6.5-4.1l1.48,3a15.69,15.69,0,0,0-5.82,3.59c-5.42,5-5.84,11.64-.68,17.23s11.71,5.85,16.9,1.06a12.94,12.94,0,0,0,3.29-4.14l-6.14-6.65-4.53,4.19L422,432.32l7.34-6.78Z"/><path class="cls-1" d="M456.67,418.21l-30-11,2.62-3.33L444,409.44c4,1.5,7.62,2.9,10.92,4.46l0-.07c-2.23-2.84-4.46-6.2-6.73-9.71l-8.61-13.29,2.59-3.29,17.13,27.27Z"/><path class="cls-1" d="M445.88,381.43l25.28,16.74L469,401.44l-25.29-16.75Z"/><path class="cls-1" d="M449.6,375.69l1.91-3.41,23.59,13.23,6.34-11.3,2.87,1.61-8.26,14.71Z"/><path class="cls-3" d="M414.19,267.86a43.39,43.39,0,0,0-19.34-20.25,62.39,62.39,0,0,0-16.58-7.26c4.23-15.48-1.77-27.8-10.19-37-12.46-13.48-25.42-15.44-25.42-15.44a40.52,40.52,0,0,0,3.76-27.63,36.15,36.15,0,0,0-17.58-24.1c-8.56-5.05-19.11-7.54-29.94-9.58-5.2-.94-27.11-4-36.2-16.58-7.32-10.19-7.54-28.54-9.53-34s-9.34-3.18-17.21,2.1c-9.2,6.25-28.27,25.94-35.62,45.75a68,68,0,0,0-3.53,38.38,70.23,70.23,0,0,0-17.16,5.11,4,4,0,0,0-1.35.47c-8.29,3.43-26.06,19.34-27.63,43.79a67.18,67.18,0,0,0,3.23,25.53,69.22,69.22,0,0,0-17.3,7.1,55.08,55.08,0,0,0-17,11.41,59.94,59.94,0,0,0-11.46,22.66,76.21,76.21,0,0,0,5.52,54.62,117.14,117.14,0,0,0,18.62,26.3c23.63,24.29,64.41,33.46,96.7,38.68,39.21,6.47,80.27,4.2,117-11.05,55-22.71,69.68-59.23,71.83-69.54,4.78-22.79-1.08-44.26-3.59-49.43Z"/><path class="cls-4" d="M327.32,316.93c-4.33,2.21-8.75,4.2-13.2,6q-4.49,1.78-9,3.23c-3,1-6.1,1.85-9.2,2.77A137.56,137.56,0,0,1,262.54,333a138.28,138.28,0,0,1-37.77-5.28l-4-1.21A150.61,150.61,0,0,1,201,318.67l-3.84-1.9a62.78,62.78,0,0,0,35.14,42.3,71,71,0,0,0,30.26,6.57,73.7,73.7,0,0,0,30.64-6.38,60.41,60.41,0,0,0,34.75-42.66Z"/><path class="cls-1" d="M321.08,309a324.67,324.67,0,0,1-58.54,4.89A330.24,330.24,0,0,1,204,309a5.9,5.9,0,0,0-2.89.15,6,6,0,0,0-2.47,1.49,6.1,6.1,0,0,0-1.49,2.49A6,6,0,0,0,197,316v.69a142.49,142.49,0,0,0,65.54,16.21,132.63,132.63,0,0,0,14.5-.77,136.08,136.08,0,0,0,18.84-3.34,85.07,85.07,0,0,0,9.2-2.77c3-1.13,6.05-2,9-3.23q6.7-2.77,13.2-6l.61-.33.17-.74a6,6,0,0,0-5.14-6.8,5.93,5.93,0,0,0-1.88,0Z"/><path class="cls-1" d="M307.1,286.54a34.26,34.26,0,1,0-34.26-34.26A34.26,34.26,0,0,0,307.1,286.54Z"/><path class="cls-4" d="M307.1,268.36a16.08,16.08,0,1,0-15.83-16.08A16,16,0,0,0,307.1,268.36Z"/><path class="cls-1" d="M218,286.54a34.26,34.26,0,1,0-34.26-34.26A34.26,34.26,0,0,0,218,286.54Z"/><path class="cls-4" d="M218,268.36a16.08,16.08,0,1,0-15.83-16.08A16,16,0,0,0,218,268.36Z"/><path d="M183.11,421.86l-.42,2.33h-2.18l-.81,4.47h-2.5l.81-4.47h-1.76l-.81,4.47H173l.82-4.47h-2.46l.43-2.33h2.45l.3-1.65h-2.42l.43-2.32h2.41l.76-4.17h2.46l-.76,4.17h1.77l.75-4.17h2.51l-.76,4.17h2.13l-.42,2.32h-2.13l-.3,1.65Zm-4.38-1.65H177l-.3,1.65h1.76Z"/><path d="M185.42,425.51l3.45-.48c.2.81,1,1.21,2.34,1.21,1.13,0,1.7-.22,1.7-.66a.48.48,0,0,0-.33-.44,6.5,6.5,0,0,0-1.55-.32c-2.27-.32-3.68-.81-4.24-1.48a3.36,3.36,0,0,1-.84-2.22,3.3,3.3,0,0,1,1.42-2.77,6.13,6.13,0,0,1,3.73-1.05q4.05,0,5.17,2.92l-3.31.62a1.91,1.91,0,0,0-1.93-1,2.21,2.21,0,0,0-1.05.19c-.23.13-.34.25-.34.38q0,.54,1.05.66a23.2,23.2,0,0,1,3.71.62,3.6,3.6,0,0,1,1.66,1.16,3.15,3.15,0,0,1,.69,2,3.36,3.36,0,0,1-1.53,2.9,7.15,7.15,0,0,1-4.2,1.08C188,428.89,186.14,427.76,185.42,425.51Z"/><path d="M209.8,417.53l-4.37,12.06a4.83,4.83,0,0,1-1.44,2.14,4.55,4.55,0,0,1-2.9.77c-.31,0-1,0-2.19-.1v-3.1a10.26,10.26,0,0,0,1.58.14c1.25,0,1.88-.28,1.88-.84a2.14,2.14,0,0,0-.19-.75l-4-10.32h4.67l1.84,5.94,1.92-5.94Z"/><path d="M223.51,417.53l-3.36,3.82,3.74,7.31h-4.51l-2.09-4.46-1.19,1.39v3.07H212V413.72h4.09v6q0,.25,0,2a12.48,12.48,0,0,1,.8-1l2.79-3.21Z"/><path d="M237.49,417.53l-3.36,3.82,3.74,7.31h-4.51l-2.09-4.46-1.19,1.39v3.07H226V413.72h4.09v6q0,.25,0,2a12.48,12.48,0,0,1,.8-1l2.79-3.21Z"/><path d="M247,424.66l4.08.28a4.8,4.8,0,0,1-1.85,2.79,6.35,6.35,0,0,1-4,1.16,6.16,6.16,0,0,1-4.49-1.63,5.41,5.41,0,0,1-1.67-4,5.77,5.77,0,0,1,6.06-5.93,5.63,5.63,0,0,1,6,6c0,.15,0,.36,0,.63h-7.46a2.88,2.88,0,0,0,.38,1.56,1.5,1.5,0,0,0,1.33.51A1.52,1.52,0,0,0,247,424.66Zm-.29-2.89a2,2,0,0,0-.45-1.51,1.61,1.61,0,0,0-1.1-.39c-1,0-1.55.63-1.55,1.9Z"/><path d="M258.22,413.72v14.94h-4.3V413.72Z"/><path d="M278.5,428.66h-4.23v-7a1.67,1.67,0,0,0-.21-1,.8.8,0,0,0-.71-.28c-.82,0-1.23.59-1.23,1.78v6.44h-4.19v-7c0-.89-.34-1.34-1-1.34s-1.06.45-1.06,1.34v7h-4.2V417.53h3.91V419a3.36,3.36,0,0,1,3.06-1.73,3.31,3.31,0,0,1,3.13,1.73,3.64,3.64,0,0,1,3.33-1.73,3.82,3.82,0,0,1,1.88.45,2.82,2.82,0,0,1,1.19,1.15,5,5,0,0,1,.36,2.18Z"/><path d="M293.15,428.66H289a7.58,7.58,0,0,1-.15-1.56,4,4,0,0,1-3.58,1.79,4,4,0,0,1-2.95-1,3.23,3.23,0,0,1-1-2.31,3.31,3.31,0,0,1,1.6-2.85c1.07-.73,3-1.16,5.69-1.31v-.25a1.14,1.14,0,0,0-.33-1,1.69,1.69,0,0,0-1-.24c-1,0-1.57.4-1.69,1.21l-4-.37c.57-2.33,2.5-3.49,5.81-3.49a11.15,11.15,0,0,1,2.47.26,4.2,4.2,0,0,1,1.79.84,3,3,0,0,1,.88,1.21,8.62,8.62,0,0,1,.22,2.44v4.44A6.07,6.07,0,0,0,293.15,428.66Zm-4.53-5.21c-1.86.19-2.79.79-2.79,1.78,0,.67.37,1,1.1,1a1.79,1.79,0,0,0,1.2-.42c.33-.27.49-.89.49-1.84Z"/><path d="M300.9,420.36v8.3h-4.11v-8.3h-1.66v-2.83h1.66a12.51,12.51,0,0,1,.12-2,2.8,2.8,0,0,1,.6-1.27,3,3,0,0,1,1.29-.93A5.91,5.91,0,0,1,301,413a16.92,16.92,0,0,1,2.81.23v2.86a11.52,11.52,0,0,0-1.55-.14,2.23,2.23,0,0,0-.94.2c-.29.14-.43.48-.43,1v.4h2.85v2.83Z"/><path d="M310.47,413.25v3.46h-4.36v-3.46Zm0,4.28v11.13h-4.36V417.53Z"/><path d="M325.11,428.66H321a7.58,7.58,0,0,1-.15-1.56,4,4,0,0,1-3.58,1.79,4,4,0,0,1-3-1,3.23,3.23,0,0,1-1-2.31,3.34,3.34,0,0,1,1.6-2.85c1.07-.73,3-1.16,5.69-1.31v-.25a1.14,1.14,0,0,0-.33-1,1.69,1.69,0,0,0-1-.24c-1,0-1.57.4-1.69,1.21l-4-.37c.57-2.33,2.5-3.49,5.81-3.49a11.15,11.15,0,0,1,2.47.26,4.2,4.2,0,0,1,1.79.84,3,3,0,0,1,.88,1.21,8.62,8.62,0,0,1,.22,2.44v4.44A6.3,6.3,0,0,0,325.11,428.66Zm-4.53-5.21c-1.86.19-2.79.79-2.79,1.78,0,.67.37,1,1.1,1a1.79,1.79,0,0,0,1.2-.42c.33-.27.49-.89.49-1.84Z"/><path d="M335.51,424.66l4.07.28a4.79,4.79,0,0,1-1.84,2.79,6.35,6.35,0,0,1-4,1.16,6.15,6.15,0,0,1-4.49-1.63,5.41,5.41,0,0,1-1.67-4,5.77,5.77,0,0,1,6.06-5.93,5.63,5.63,0,0,1,6,6c0,.15,0,.36,0,.63h-7.45a3,3,0,0,0,.37,1.56,1.8,1.8,0,0,0,3-.86Zm-.29-2.89a2,2,0,0,0-.45-1.51,1.61,1.61,0,0,0-1.1-.39c-1,0-1.55.63-1.55,1.9Z"/><path d="M353.29,428.66h-4.37v-7c0-.57-.08-.94-.26-1.1a1,1,0,0,0-.68-.24c-.79,0-1.19.55-1.19,1.66v6.69h-4.37V417.53h4.05v1.57a3.27,3.27,0,0,1,3.21-1.8,4.17,4.17,0,0,1,2.05.46,2.75,2.75,0,0,1,1.2,1.21,6.37,6.37,0,0,1,.36,2.56Z"/></g></g></svg>