<svg xmlns="http://www.w3.org/2000/svg" viewBox="0 0 526 526"><defs><style>.cls-1{fill:#fff;}.cls-2{fill:none;stroke:#d33e28;stroke-width:60px;}.cls-3{fill:#885742;}.cls-4{fill:#35220b;}</style></defs><g id="Layer_2" data-name="Layer 2"><g id="Layer_2-2" data-name="Layer 2"><circle id="bg" class="cls-1" cx="263" cy="263" r="258.22"/><circle class="cls-2" cx="263" cy="263" r="233"/><path class="cls-1" d="M48.73,137.73l2-3.39,17.56,10.17c7,4,7.13,8.7,4.52,13.21A12.45,12.45,0,0,1,70.05,161l-2.47-2.1a9.34,9.34,0,0,0,2.15-2.55c1.76-3,1.43-5.62-3.71-8.59Z"/><path class="cls-1" d="M77.65,123.12l-6.78,9.65,8.94,6.29,7.56-10.75,2.69,1.89-9.81,14L55.43,126.71l9.42-13.4,2.69,1.89-7.17,10.2,7.85,5.51L75,121.26Z"/><path class="cls-1" d="M107.11,108.45a28.11,28.11,0,0,1-4.94,8.07c-3,3.43-6.44,5.48-10.53,5.81-3.62.28-7.72-1.2-11.25-4.34-6.73-6-7.55-15.08-.79-22.68a18.71,18.71,0,0,1,6.07-4.73l1.76,2.83A15.84,15.84,0,0,0,82,97.56c-4.9,5.51-4.67,12.16,1,17.22s12.23,4.67,16.93-.61a12.83,12.83,0,0,0,2.86-4.44l-6.76-6-4.1,4.6-2.35-2.09,6.64-7.47Z"/><path class="cls-1" d="M100.62,75.51a55.66,55.66,0,0,1,6.15-5.65c4.42-3.48,8.37-4.94,12-4.64s7.06,2,10.1,5.91,4.37,8,3.87,12-3.2,8.08-7.83,11.73a62,62,0,0,1-5.81,4.12ZM120.3,94.14a24.05,24.05,0,0,0,3.25-2.27c6.57-5.18,7.25-11.67,2.17-18.1-4.39-5.65-10.39-6.71-16.89-1.58a21.71,21.71,0,0,0-3.35,3.16Z"/><path class="cls-1" d="M126.9,55.75A40.64,40.64,0,0,1,133,51.31c3.57-2.18,6.28-2.93,8.78-2.45a7.51,7.51,0,0,1,5,3.68,7.94,7.94,0,0,1-.85,9.58l.07.12c2.42-.53,4.73.59,7,2.91,3,3.09,5.18,5.22,6.33,5.89l-3.46,2.11a39.57,39.57,0,0,1-5.5-5.14c-2.95-3.11-5.15-3.61-8.26-1.87L139,68.06l6.84,11.22-3.35,2Zm10.53,9.77,3.42-2.08c3.57-2.18,4.65-5.52,2.84-8.48-2-3.35-5.34-3.33-8.9-1.22a16.16,16.16,0,0,0-3.12,2.32Z"/><path class="cls-1" d="M153.19,40.39l13.65,27.08-3.5,1.76L149.69,42.15Z"/><path class="cls-1" d="M168,37.27l-8.53,3.52-1.26-3.08L179,29.16l1.27,3.08-8.57,3.53,10.28,25-3.67,1.51Z"/><path class="cls-1" d="M204.36,38.27l-11.3,3.37,3.12,10.48,12.59-3.75.94,3.14-16.34,4.87-8.66-29.06,15.69-4.68.94,3.15L189.4,29.35l2.73,9.18,11.3-3.36Z"/><path class="cls-1" d="M208.74,21.05a39.65,39.65,0,0,1,7.27-2c4.12-.77,6.91-.51,9.08.82a7.56,7.56,0,0,1,3.41,5.23,8,8,0,0,1-4.2,8.65l0,.14c2.45.36,4.22,2.23,5.5,5.19,1.75,4,3,6.72,3.83,7.76l-4,.74a39.21,39.21,0,0,1-3.32-6.75c-1.65-3.95-3.53-5.2-7-4.68l-3.63.68,2.41,12.91-3.85.72Zm6.39,12.86,3.93-.74c4.12-.77,6.31-3.51,5.67-6.91-.72-3.85-3.82-5-7.9-4.3A15.86,15.86,0,0,0,213.09,23Z"/><path class="cls-1" d="M250.07,15.16l1.79,30.28-3.91.23-1.78-30.28Z"/><path class="cls-1" d="M274.1,35.82l-3.83,9.29-4-.29,12.45-29.51,4.72.33,8.15,31-4.17-.3-2.55-9.75Zm10.14-2.34-2.34-8.92c-.53-2-.85-3.85-1.17-5.63h-.09c-.58,1.76-1.21,3.57-1.92,5.37l-3.59,8.54Z"/><path class="cls-1" d="M300.88,17.6l3.85.71-4.87,26.6,12.75,2.33L312,50.48l-16.6-3Z"/><path class="cls-1" d="M324.23,22.34,328,23.42l-7.41,26L333.05,53l-.9,3.16-16.23-4.62Z"/><path class="cls-1" d="M355.75,50.06l-11-4.33-4,10.17L353,60.73l-1.2,3.06-15.87-6.27,11.15-28.21,15.24,6-1.21,3.05L349.5,33.8,346,42.72l11,4.33Z"/><path class="cls-1" d="M373.91,64.39,366.34,71l-3.48-2.07,24.31-20.85,4.07,2.41L384.7,81.86l-3.6-2.13,2.07-9.86ZM384,66.82l1.89-9c.43-2,1-3.83,1.46-5.57l-.07,0c-1.31,1.32-2.67,2.66-4.12,4l-7,6Z"/><path class="cls-1" d="M387.69,84l18.63-23.94,3.37,2.63-1.75,18.08a86.64,86.64,0,0,1-1.76,11.12l.1,0c2.2-3.42,4.4-6.39,7.3-10.12l7.79-10,2.91,2.27L405.66,98l-3.13-2.43,1.86-18.06A95.52,95.52,0,0,1,406.13,66L406,66c-2.18,3.16-4.34,6.09-7.44,10.07l-8,10.22Z"/><path class="cls-1" d="M431.49,81a54.76,54.76,0,0,1,6.29,5.49c3.94,4,5.82,7.78,5.92,11.41s-1.27,7.24-4.76,10.68-7.49,5.23-11.47,5.16-8.38-2.29-12.52-6.49a64.81,64.81,0,0,1-4.73-5.32Zm-16.37,21.6a23.77,23.77,0,0,0,2.62,3c5.87,6,12.39,5.92,18.23.18,5.13-5,5.53-11.06-.28-17a22.12,22.12,0,0,0-3.51-3Z"/><path class="cls-1" d="M454,104.92a40,40,0,0,1,5.08,5.56c2.56,3.32,3.6,5.92,3.4,8.46a7.54,7.54,0,0,1-3.1,5.41,8,8,0,0,1-9.62.2l-.11.08c.79,2.35-.07,4.77-2.12,7.27-2.75,3.36-4.62,5.72-5.16,6.93l-2.48-3.2a39.14,39.14,0,0,1,4.5-6c2.77-3.27,3-5.51,1-8.41l-2.25-2.92-10.41,8-2.39-3.1Zm-8.55,11.53,2.45,3.17c2.55,3.32,6,4,8.73,1.9,3.1-2.39,2.72-5.68.23-9a15.84,15.84,0,0,0-2.65-2.85Z"/><path class="cls-1" d="M464.85,148.15l-6.19-10-9.31,5.75,6.9,11.18-2.79,1.73-9-14.52,25.81-15.93,8.61,13.94-2.8,1.73-6.55-10.61-8.16,5,6.2,10Z"/><path class="cls-1" d="M71.55,396c-8.91,5.45-16.94,2.92-21-3.68-4.17-6.83-1.81-14.87,6-19.66,8.22-5,16.71-3.2,20.94,3.71S79.22,391.31,71.55,396Zm-12.7-19.82c-5.53,3.38-8.65,9.41-5.43,14.67s9.94,5.31,15.81,1.72c5.15-3.15,8.88-9.12,5.48-14.69S64.53,372.71,58.85,376.18Z"/><path class="cls-1" d="M78.86,427.79a28.39,28.39,0,0,1-7.16-6.18c-2.89-3.56-4.37-7.24-4-11.33.31-3.61,2.43-7.42,6.1-10.4,7-5.67,16.1-5,22.51,2.88A18.66,18.66,0,0,1,100,409.5l-3.07,1.28a15.8,15.8,0,0,0-3.22-6C89,399,82.41,398.19,76.51,403s-6.58,11.31-2.13,16.8a13,13,0,0,0,3.92,3.54l7-5.7-3.88-4.79,2.44-2,6.3,7.76Z"/><path class="cls-1" d="M111.92,420.66a46,46,0,0,1,6,4.55c2.9,2.56,4.42,5.12,4.69,7.52a8.15,8.15,0,0,1-2.22,6.51,8.89,8.89,0,0,1-6.05,3.3c-3,.28-6.28-1.12-9.14-3.66a12.78,12.78,0,0,1-2.18-2.29L95,445.69,92,443.09Zm-6.77,13.54a13.3,13.3,0,0,0,2.21,2.39c3.54,3.13,7.22,3.32,10,.19s1.82-6.33-1.41-9.19a16.63,16.63,0,0,0-3-2.21Z"/><path class="cls-1" d="M118.79,453.22l-8.14,5.88-3.29-2.38L133.5,438.2l3.83,2.77-9.41,30.64-3.39-2.46,3-9.63Zm9.85,3.35,2.72-8.81c.61-2,1.31-3.73,2-5.41l-.07-.05c-1.42,1.19-2.91,2.39-4.46,3.55l-7.56,5.36Z"/><path class="cls-1" d="M148.88,449.26a41.31,41.31,0,0,1,6.87,3.13c3.65,2.05,5.63,4,6.44,6.45a7.54,7.54,0,0,1-.73,6.19,8,8,0,0,1-8.77,4l-.07.12c1.65,1.85,1.81,4.41.89,7.51-1.2,4.18-2,7.08-2,8.41l-3.54-2a40,40,0,0,1,1.78-7.31c1.26-4.09.62-6.26-2.42-8.11l-3.22-1.81-6.42,11.47-3.42-1.92Zm-3.34,14,3.5,2c3.65,2.05,7.09,1.34,8.78-1.68,1.92-3.42.28-6.29-3.31-8.36a17,17,0,0,0-3.55-1.58Z"/><path class="cls-1" d="M169.91,460.2l3.6,1.53-5.71,13.46.12.05c1.21-.76,2.37-1.44,3.46-2.05l13-6.86,4.47,1.9-15.14,7.56,4.08,20.7-4.27-1.81-3.38-17.62L166.18,479l-4.52,10.65-3.6-1.53Z"/><path class="cls-1" d="M202.38,489.16l-11.27-3.44-3.19,10.46L200.49,500l-1,3.15-16.32-5,8.85-29L207.73,474l-1,3.14-11.92-3.64-2.8,9.17,11.28,3.44Z"/><path class="cls-1" d="M212.81,475.62a40.33,40.33,0,0,1,7.5.81c4.11.79,6.62,2.06,8.15,4.09a7.57,7.57,0,0,1,1.25,6.11,8,8,0,0,1-7.08,6.52l0,.13c2.14,1.24,3.1,3.63,3.21,6.86.17,4.34.32,7.35.72,8.62l-4-.77a39.68,39.68,0,0,1-.61-7.5c-.09-4.28-1.38-6.14-4.85-6.94l-3.62-.7L211,505.75l-3.85-.74ZM214,489.93l3.94.76c4.11.79,7.15-1,7.81-4.36.74-3.84-1.72-6.06-5.78-6.89a15.8,15.8,0,0,0-3.86-.38Z"/><path class="cls-1" d="M250.52,496.76l-11.74-1-.95,10.89,13.09,1.14-.28,3.27-17-1.48,2.62-30.21,16.32,1.42L252.3,484,239.89,483l-.83,9.55,11.74,1Z"/><path class="cls-1" d="M257.93,481.35a40.34,40.34,0,0,1,7.51-.75c4.18-.07,6.89.65,8.81,2.33a7.56,7.56,0,0,1,2.48,5.72,8,8,0,0,1-5.59,7.83v.14c2.36.77,3.79,2.91,4.56,6,1.06,4.22,1.83,7.13,2.47,8.29l-4.05.07a40.69,40.69,0,0,1-2.14-7.21c-1-4.17-2.61-5.72-6.17-5.8l-3.69.06.21,13.14-3.91.06Zm4.14,13.75,4-.07c4.18-.06,6.8-2.4,6.74-5.87-.06-3.91-2.92-5.57-7.06-5.55a16.21,16.21,0,0,0-3.87.42Z"/><path class="cls-1" d="M291.44,479.72a55.12,55.12,0,0,1,8.08-2.13c5.53-1,9.7-.47,12.76,1.48s5.29,5.12,6.18,9.94.13,9.13-2.15,12.38-6.6,5.66-12.4,6.73a62.63,62.63,0,0,1-7.05.93Zm8.72,25.66a24,24,0,0,0,3.93-.5c8.24-1.52,11.86-6.94,10.37-15-1.25-7-6.06-10.78-14.2-9.27a21.59,21.59,0,0,0-4.44,1.23Z"/><path class="cls-1" d="M339.86,484.17l-11.27,3.49,3.23,10.44,12.56-3.88,1,3.14-16.3,5-9-29,15.65-4.84,1,3.14L324.8,475.4l2.83,9.16,11.27-3.48Z"/><path class="cls-1" d="M340.88,467.12a40.76,40.76,0,0,1,6.66-3.53c3.85-1.65,6.63-2,9-1.18a7.54,7.54,0,0,1,4.46,4.35,8,8,0,0,1-2.21,9.37l.06.12c2.47-.17,4.6,1.26,6.5,3.87,2.58,3.5,4.39,5.91,5.43,6.74l-3.72,1.59c-.79-.59-2.44-2.72-4.72-5.86-2.47-3.49-4.58-4.3-7.9-3L351.09,481l5.17,12.08-3.6,1.54Zm9,11.16,3.68-1.57c3.85-1.65,5.38-4.81,4-8-1.54-3.6-4.82-4.06-8.64-2.47a16.06,16.06,0,0,0-3.42,1.86Z"/><path class="cls-1" d="M376.61,448.91l3.35-2,10.49,17.37c4.17,6.89,2.06,11.06-2.41,13.76a12.65,12.65,0,0,1-4,1.54l-1.16-3a9.49,9.49,0,0,0,3.12-1.2c3-1.82,4-4.23.89-9.32Z"/><path class="cls-1" d="M407.46,447.2l-9.52,7L404.4,463l10.6-7.76,1.94,2.65L403.18,468l-17.91-24.48,13.22-9.67,1.94,2.66-10.06,7.35,5.66,7.74,9.52-7Z"/><path class="cls-1" d="M439.18,436.26a28.23,28.23,0,0,1-5.71,7.54c-3.37,3.12-6.94,4.82-11.05,4.75-3.63-.08-7.57-1.95-10.77-5.43-6.11-6.67-6-15.75,1.44-22.65a18.77,18.77,0,0,1,6.5-4.1l1.48,3a15.69,15.69,0,0,0-5.82,3.59c-5.42,5-5.84,11.64-.68,17.23s11.71,5.85,16.9,1.06a12.94,12.94,0,0,0,3.29-4.14l-6.14-6.65-4.53,4.19L422,432.32l7.34-6.78Z"/><path class="cls-1" d="M456.67,418.21l-30-11,2.62-3.33L444,409.44c4,1.5,7.62,2.9,10.92,4.46l0-.07c-2.23-2.84-4.46-6.2-6.73-9.71l-8.61-13.29,2.59-3.29,17.13,27.27Z"/><path class="cls-1" d="M445.88,381.43l25.28,16.74L469,401.44l-25.29-16.75Z"/><path class="cls-1" d="M449.6,375.69l1.91-3.41,23.59,13.23,6.34-11.3,2.87,1.61-8.26,14.71Z"/><path class="cls-3" d="M413.91,282.86a43.39,43.39,0,0,0-19.34-20.25A62.53,62.53,0,0,0,378,255.35c4.23-15.48-1.77-27.8-10.19-37-12.47-13.48-25.42-15.44-25.42-15.44a40.46,40.46,0,0,0,3.75-27.63,36.13,36.13,0,0,0-17.57-24.1c-8.56-5.05-19.12-7.54-29.95-9.58-5.19-.94-27.1-4-36.19-16.58-7.32-10.19-7.54-28.54-9.53-34s-9.34-3.18-17.21,2.1c-9.21,6.25-28.27,25.94-35.62,45.75a68,68,0,0,0-3.54,38.38,70.29,70.29,0,0,0-17.15,5.11,4.09,4.09,0,0,0-1.36.47c-8.28,3.43-26,19.34-27.63,43.79a67.18,67.18,0,0,0,3.24,25.53,69.22,69.22,0,0,0-17.3,7.1,55,55,0,0,0-17,11.41,60.11,60.11,0,0,0-11.47,22.66,76.27,76.27,0,0,0,5.53,54.62A116.82,116.82,0,0,0,132,374.2c23.62,24.29,64.4,33.46,96.7,38.68,39.21,6.47,80.26,4.2,117-11.05,55-22.71,69.68-59.23,71.84-69.54,4.78-22.79-1.08-44.26-3.59-49.43Z"/><path class="cls-4" d="M327,331.93c-4.33,2.21-8.76,4.2-13.2,6q-4.48,1.78-9,3.23c-3,1-6.1,1.85-9.2,2.77a136.61,136.61,0,0,1-18.84,3.34,135.22,135.22,0,0,1-14.51.77,138.39,138.39,0,0,1-37.77-5.28l-4-1.21a150.61,150.61,0,0,1-19.75-7.85l-3.84-1.9A62.78,62.78,0,0,0,232,374.07a71,71,0,0,0,30.25,6.57,73.63,73.63,0,0,0,30.64-6.38,60.4,60.4,0,0,0,34.76-42.66Z"/><path class="cls-1" d="M320.8,324a324.71,324.71,0,0,1-58.55,4.89A330.21,330.21,0,0,1,203.71,324a5.9,5.9,0,0,0-2.89.15,6.13,6.13,0,0,0-2.48,1.49,6,6,0,0,0-1.62,5.38v.69a142.45,142.45,0,0,0,65.53,16.21,132.68,132.68,0,0,0,14.51-.77,136.61,136.61,0,0,0,18.84-3.34,85.07,85.07,0,0,0,9.2-2.77c3-1.13,6.05-2,9-3.23q6.71-2.77,13.2-6l.61-.33.17-.74a6,6,0,0,0-5.14-6.8,5.93,5.93,0,0,0-1.88,0Z"/><path class="cls-1" d="M306.82,301.54a34.26,34.26,0,1,0-34.26-34.26A34.26,34.26,0,0,0,306.82,301.54Z"/><path class="cls-4" d="M306.82,283.36A16.08,16.08,0,1,0,291,267.28,16,16,0,0,0,306.82,283.36Z"/><path class="cls-1" d="M217.69,301.54a34.26,34.26,0,1,0-34.26-34.26A34.26,34.26,0,0,0,217.69,301.54Z"/><path class="cls-4" d="M217.69,283.36a16.08,16.08,0,1,0-15.83-16.08A16,16,0,0,0,217.69,283.36Z"/><path d="M216.55,437.44l-.24,1.35H215l-.47,2.59h-1.45l.47-2.59h-1l-.47,2.59h-1.43l.47-2.59h-1.42l.24-1.35h1.43l.17-1h-1.4l.24-1.35h1.4l.44-2.42h1.43l-.44,2.42h1l.44-2.42h1.46l-.44,2.42h1.23l-.24,1.35h-1.24l-.17,1Zm-2.54-1h-1l-.18,1h1Z"/><path d="M217.89,439.55l2-.27c.11.46.57.7,1.36.7s1-.13,1-.38a.27.27,0,0,0-.19-.26,3.74,3.74,0,0,0-.9-.19,4.27,4.27,0,0,1-2.46-.85,2,2,0,0,1-.49-1.3,1.91,1.91,0,0,1,.83-1.6,3.52,3.52,0,0,1,2.16-.61c1.57,0,2.57.56,3,1.69l-1.92.37a1.11,1.11,0,0,0-1.12-.58,1.24,1.24,0,0,0-.61.12c-.13.07-.2.14-.2.21s.21.35.61.39a13.16,13.16,0,0,1,2.15.36,2.08,2.08,0,0,1,1,.67,1.8,1.8,0,0,1,.4,1.19,2,2,0,0,1-.89,1.68,4.21,4.21,0,0,1-2.44.62C219.39,441.51,218.3,440.86,217.89,439.55Z"/><path d="M232,434.92l-2.53,7a2.9,2.9,0,0,1-.84,1.24,2.63,2.63,0,0,1-1.68.45l-1.27-.06v-1.8a6.12,6.12,0,0,0,.91.08c.73,0,1.09-.16,1.09-.48a1.16,1.16,0,0,0-.11-.44l-2.31-6H228l1.06,3.45,1.12-3.45Z"/><path d="M240,434.92,238,437.14l2.17,4.24h-2.62l-1.21-2.59-.69.81v1.78h-2.37v-8.67h2.37v3.5c0,.1,0,.49,0,1.17a5.79,5.79,0,0,1,.47-.59l1.62-1.87Z"/><path d="M248.09,434.92l-2,2.22,2.17,4.24h-2.62l-1.21-2.59-.69.81v1.78h-2.37v-8.67h2.37v3.5c0,.1,0,.49,0,1.17.15-.22.31-.41.46-.59l1.62-1.87Z"/><path d="M253.6,439.06l2.37.16a2.8,2.8,0,0,1-1.07,1.62,3.69,3.69,0,0,1-2.33.67,3.56,3.56,0,0,1-2.6-.94,3.12,3.12,0,0,1-1-2.34,3.38,3.38,0,0,1,1-2.44,3.34,3.34,0,0,1,2.55-1,3.26,3.26,0,0,1,3.46,3.5v.37h-4.33a1.65,1.65,0,0,0,.22.9.86.86,0,0,0,.77.29A.88.88,0,0,0,253.6,439.06Zm-.17-1.67a1.15,1.15,0,0,0-.26-.88.92.92,0,0,0-.63-.23q-.9,0-.9,1.11Z"/><path d="M260.11,432.71v8.67h-2.5v-8.67Z"/><path d="M271.87,441.38h-2.45v-4a1,1,0,0,0-.12-.57.51.51,0,0,0-.42-.16c-.47,0-.71.35-.71,1v3.73h-2.43v-4c0-.52-.2-.77-.6-.77s-.61.25-.61.77v4h-2.44v-6.46h2.27v.87a2,2,0,0,1,1.77-1,1.93,1.93,0,0,1,1.82,1,2.11,2.11,0,0,1,1.93-1,2.25,2.25,0,0,1,1.09.26,1.6,1.6,0,0,1,.69.67,2.88,2.88,0,0,1,.21,1.27Z"/><path d="M280.37,441.38H278a4.29,4.29,0,0,1-.09-.9,2.32,2.32,0,0,1-2.08,1,2.28,2.28,0,0,1-1.71-.58,1.87,1.87,0,0,1-.57-1.34,1.91,1.91,0,0,1,.93-1.65,6.73,6.73,0,0,1,3.3-.76V437a.65.65,0,0,0-.19-.56.92.92,0,0,0-.57-.14c-.59,0-.91.23-1,.7l-2.31-.22c.33-1.35,1.45-2,3.37-2a6.5,6.5,0,0,1,1.44.15,2.47,2.47,0,0,1,1,.49,1.72,1.72,0,0,1,.51.7,4.85,4.85,0,0,1,.13,1.41v2.58A3.62,3.62,0,0,0,280.37,441.38Zm-2.63-3c-1.08.11-1.62.46-1.62,1,0,.39.22.59.64.59a1,1,0,0,0,.69-.25c.2-.16.29-.51.29-1.06Z"/><path d="M284.86,436.57v4.81h-2.38v-4.81h-1v-1.65h1a6.8,6.8,0,0,1,.07-1.18,1.57,1.57,0,0,1,.35-.74,1.77,1.77,0,0,1,.75-.54,3.58,3.58,0,0,1,1.26-.18,9.53,9.53,0,0,1,1.63.13v1.66a6.66,6.66,0,0,0-.9-.09,1.26,1.26,0,0,0-.55.12c-.16.08-.24.28-.24.59v.23h1.65v1.65Z"/><path d="M290.42,432.44v2h-2.54v-2Zm0,2.48v6.46h-2.54v-6.46Z"/><path d="M298.9,441.38h-2.41a4.29,4.29,0,0,1-.09-.9,2.68,2.68,0,0,1-3.78.45,1.87,1.87,0,0,1-.57-1.34,1.91,1.91,0,0,1,.93-1.65,6.73,6.73,0,0,1,3.3-.76V437a.65.65,0,0,0-.2-.56.92.92,0,0,0-.57-.14c-.58,0-.91.23-1,.7l-2.31-.22c.33-1.35,1.45-2,3.37-2a6.34,6.34,0,0,1,1.43.15,2.52,2.52,0,0,1,1,.49,1.72,1.72,0,0,1,.51.7,5.25,5.25,0,0,1,.13,1.41v2.58A3.63,3.63,0,0,0,298.9,441.38Zm-2.62-3c-1.08.11-1.62.46-1.62,1,0,.39.21.59.64.59a1,1,0,0,0,.69-.25,1.4,1.4,0,0,0,.29-1.06Z"/><path d="M304.94,439.06l2.36.16a2.8,2.8,0,0,1-1.07,1.62,3.67,3.67,0,0,1-2.33.67,3.56,3.56,0,0,1-2.6-.94,3.12,3.12,0,0,1-1-2.34,3.49,3.49,0,1,1,7,.06v.37H303a1.66,1.66,0,0,0,.21.9,1.06,1.06,0,0,0,1.75-.5Zm-.17-1.67a1.19,1.19,0,0,0-.27-.88.92.92,0,0,0-.63-.23q-.9,0-.9,1.11Z"/><path d="M315.25,441.38h-2.53v-4.06a.9.9,0,0,0-.16-.64.53.53,0,0,0-.39-.15c-.46,0-.69.33-.69,1v3.88H309v-6.46h2.34v.92a1.9,1.9,0,0,1,1.86-1,2.41,2.41,0,0,1,1.19.27,1.58,1.58,0,0,1,.7.7,3.68,3.68,0,0,1,.21,1.49Z"/></g></g></svg>