<svg xmlns="http://www.w3.org/2000/svg" viewBox="0 0 200 265"><defs><style>.cls-1{fill:#1a1a1a;}.cls-2{fill:#fff;}.cls-3{fill:#043087;}.cls-4{fill:none;stroke:#fff;stroke-miterlimit:10;stroke-width:2px;}.cls-5{fill:#010101;}</style></defs><g id="Layer_2" data-name="Layer 2"><g id="rak"><rect class="cls-1" y="171" width="200" height="65"/><rect class="cls-2" x="1.5" y="201.5" width="197" height="62"/><path class="cls-1" d="M197,203v59H3V203H197m3-3H0v65H200V200Z"/><path d="M9.65,238.86V227.41H12v11.45Z"/><path d="M14.07,238.86V227.41h2.2v6.08l2.57-2.93h2.7l-2.84,3,3,5.26H19.37l-2.08-3.73-1,1.08v2.65Z"/><path d="M23,238.86V227.41h2.19v6.08l2.57-2.93h2.71l-2.84,3,3,5.26H28.27l-2.08-3.73-1,1.08v2.65Z"/><path d="M36.75,236.22l2.19.37a3.58,3.58,0,0,1-1.34,1.83,3.87,3.87,0,0,1-2.27.63,3.71,3.71,0,0,1-3.21-1.42,4.76,4.76,0,0,1-.82-2.85,4.6,4.6,0,0,1,1.08-3.24,3.58,3.58,0,0,1,2.73-1.16A3.66,3.66,0,0,1,38,231.6a5.39,5.39,0,0,1,1,3.75h-5.5a2.26,2.26,0,0,0,.54,1.52,1.65,1.65,0,0,0,1.26.54,1.41,1.41,0,0,0,.87-.28A1.78,1.78,0,0,0,36.75,236.22Zm.12-2.22a2.11,2.11,0,0,0-.49-1.45,1.5,1.5,0,0,0-1.14-.49,1.53,1.53,0,0,0-1.19.52,2.06,2.06,0,0,0-.46,1.42Z"/><path d="M45.23,230.56h2v1.22a3.18,3.18,0,0,1,1.08-1,3,3,0,0,1,1.51-.39,3.14,3.14,0,0,1,2.45,1.13,4.59,4.59,0,0,1,1,3.16,4.72,4.72,0,0,1-1,3.23,3.13,3.13,0,0,1-2.46,1.15,2.79,2.79,0,0,1-1.24-.27,4.29,4.29,0,0,1-1.18-.94V242H45.23Zm2.17,4a3.22,3.22,0,0,0,.55,2.07,1.71,1.71,0,0,0,1.35.67,1.6,1.6,0,0,0,1.28-.62,3.15,3.15,0,0,0,.51-2,3,3,0,0,0-.53-1.94,1.62,1.62,0,0,0-1.29-.63,1.69,1.69,0,0,0-1.34.62A2.75,2.75,0,0,0,47.4,234.57Z"/><path d="M56.7,233.1l-2-.36A3,3,0,0,1,55.87,231a4.17,4.17,0,0,1,2.43-.58,5.32,5.32,0,0,1,2.19.34,2.18,2.18,0,0,1,1,.89,4.4,4.4,0,0,1,.3,2l0,2.56a8.94,8.94,0,0,0,.11,1.62,4.78,4.78,0,0,0,.39,1.11H60.1a5.59,5.59,0,0,1-.21-.65,2.55,2.55,0,0,0-.08-.25,4.07,4.07,0,0,1-1.2.82,3.49,3.49,0,0,1-1.37.27,2.81,2.81,0,0,1-2-.7,2.31,2.31,0,0,1-.74-1.75,2.42,2.42,0,0,1,.34-1.26,2.13,2.13,0,0,1,.94-.84,6.9,6.9,0,0,1,1.75-.51,13.58,13.58,0,0,0,2.13-.54v-.22a1.13,1.13,0,0,0-.31-.9,1.87,1.87,0,0,0-1.18-.27,1.55,1.55,0,0,0-.92.23A1.65,1.65,0,0,0,56.7,233.1Zm2.94,1.78c-.28.09-.73.2-1.34.33a3.8,3.8,0,0,0-1.19.39.9.9,0,0,0-.43.77,1.08,1.08,0,0,0,.34.8,1.22,1.22,0,0,0,.88.33,1.91,1.91,0,0,0,1.13-.39,1.33,1.33,0,0,0,.52-.73,4.08,4.08,0,0,0,.09-1.07Z"/><path d="M66.06,238.86H63.87v-8.3h2v1.18a3.52,3.52,0,0,1,.94-1.1,1.78,1.78,0,0,1,1-.26,2.72,2.72,0,0,1,1.44.41l-.68,1.92a1.91,1.91,0,0,0-1-.36,1.2,1.2,0,0,0-.78.25,1.76,1.76,0,0,0-.5.92,12.38,12.38,0,0,0-.19,2.78Z"/><path d="M70.11,238.86V227.41H72.3v6.08l2.57-2.93h2.71l-2.84,3,3,5.26H75.41l-2.08-3.73-1,1.08v2.65Z"/><path d="M83.89,236.22l2.19.37a3.62,3.62,0,0,1-1.33,1.83,3.93,3.93,0,0,1-2.28.63,3.69,3.69,0,0,1-3.2-1.42,4.7,4.7,0,0,1-.83-2.85,4.6,4.6,0,0,1,1.08-3.24,3.58,3.58,0,0,1,2.73-1.16,3.66,3.66,0,0,1,2.92,1.22,5.39,5.39,0,0,1,1,3.75h-5.5a2.26,2.26,0,0,0,.54,1.52,1.65,1.65,0,0,0,1.26.54,1.39,1.39,0,0,0,.87-.28A1.78,1.78,0,0,0,83.89,236.22ZM84,234a2.11,2.11,0,0,0-.5-1.45,1.5,1.5,0,0,0-1.14-.49,1.53,1.53,0,0,0-1.19.52,2.06,2.06,0,0,0-.46,1.42Z"/><path d="M90.09,238.86h-2.2v-8.3h2v1.18a3.66,3.66,0,0,1,.94-1.1,1.81,1.81,0,0,1,.95-.26,2.78,2.78,0,0,1,1.45.41l-.68,1.92a1.94,1.94,0,0,0-1-.36,1.23,1.23,0,0,0-.78.25,1.76,1.76,0,0,0-.5.92,13.27,13.27,0,0,0-.18,2.78Z"/><path d="M97.88,236.49l2.21-.33a1.59,1.59,0,0,0,.57,1,1.9,1.9,0,0,0,1.2.33,2.16,2.16,0,0,0,1.28-.31.71.71,0,0,0,.29-.59.56.56,0,0,0-.16-.41,1.8,1.8,0,0,0-.73-.29,12,12,0,0,1-3.37-1.07,2.15,2.15,0,0,1-1-1.87,2.3,2.3,0,0,1,.85-1.81,4,4,0,0,1,2.64-.73,4.61,4.61,0,0,1,2.53.55,2.86,2.86,0,0,1,1.14,1.64l-2.07.39a1.31,1.31,0,0,0-.5-.75,1.87,1.87,0,0,0-1.06-.25,2.39,2.39,0,0,0-1.24.24.5.5,0,0,0-.25.44.49.49,0,0,0,.21.4,8.35,8.35,0,0,0,2.06.62,6.1,6.1,0,0,1,2.44,1,2.05,2.05,0,0,1,.69,1.64,2.52,2.52,0,0,1-.95,2,4.22,4.22,0,0,1-2.82.82,4.58,4.58,0,0,1-2.68-.69A3.2,3.2,0,0,1,97.88,236.49Z"/><path d="M107.05,234.6a4.48,4.48,0,0,1,.54-2.12,3.63,3.63,0,0,1,1.52-1.56,4.55,4.55,0,0,1,2.21-.54,4.15,4.15,0,0,1,3.09,1.22,4.23,4.23,0,0,1,1.2,3.09,4.28,4.28,0,0,1-1.22,3.12,4.09,4.09,0,0,1-3,1.24,4.73,4.73,0,0,1-2.18-.52,3.43,3.43,0,0,1-1.57-1.51A5,5,0,0,1,107.05,234.6Zm2.25.11a2.72,2.72,0,0,0,.58,1.89,1.91,1.91,0,0,0,2.89,0,3.37,3.37,0,0,0,0-3.78,1.93,1.93,0,0,0-2.89,0A2.76,2.76,0,0,0,109.3,234.71Z"/><path d="M117.16,230.56h2v1.14a3.24,3.24,0,0,1,2.58-1.32,2.8,2.8,0,0,1,1.39.33,2.42,2.42,0,0,1,1,1,3.49,3.49,0,0,1,1.18-1,2.87,2.87,0,0,1,1.35-.33,3,3,0,0,1,1.54.37,2.26,2.26,0,0,1,.95,1.09,4.7,4.7,0,0,1,.23,1.72v5.3h-2.2v-4.74a3.35,3.35,0,0,0-.23-1.59,1,1,0,0,0-.93-.47,1.48,1.48,0,0,0-.87.28,1.58,1.58,0,0,0-.59.82,6,6,0,0,0-.18,1.72v4h-2.19v-4.55a6.21,6.21,0,0,0-.12-1.56,1,1,0,0,0-.36-.52,1.13,1.13,0,0,0-.67-.17,1.6,1.6,0,0,0-.91.27,1.54,1.54,0,0,0-.59.79,6.14,6.14,0,0,0-.17,1.71v4h-2.2Z"/><path d="M140.8,236.22l2.19.37a3.57,3.57,0,0,1-1.33,1.83,3.93,3.93,0,0,1-2.28.63,3.69,3.69,0,0,1-3.2-1.42,4.69,4.69,0,0,1-.82-2.85,4.6,4.6,0,0,1,1.08-3.24,3.56,3.56,0,0,1,2.72-1.16,3.68,3.68,0,0,1,2.93,1.22,5.44,5.44,0,0,1,1,3.75h-5.5a2.2,2.2,0,0,0,.53,1.52,1.67,1.67,0,0,0,1.27.54,1.37,1.37,0,0,0,.86-.28A1.71,1.71,0,0,0,140.8,236.22Zm.13-2.22a2.16,2.16,0,0,0-.49-1.45,1.6,1.6,0,0,0-2.33,0,2,2,0,0,0-.46,1.42Z"/><path d="M152.44,238.86h-2.19v-4.23a6.7,6.7,0,0,0-.14-1.74,1.19,1.19,0,0,0-.46-.61,1.26,1.26,0,0,0-.76-.22,1.73,1.73,0,0,0-1,.31,1.51,1.51,0,0,0-.62.83,6.77,6.77,0,0,0-.17,1.9v3.76h-2.2v-8.3h2v1.22a3.35,3.35,0,0,1,2.74-1.4,3.18,3.18,0,0,1,1.32.26,2.17,2.17,0,0,1,.91.67,2.29,2.29,0,0,1,.43.92,6.87,6.87,0,0,1,.12,1.48Z"/><path d="M159.05,230.56h2v1.22a3.18,3.18,0,0,1,1.08-1,3,3,0,0,1,1.51-.39,3.14,3.14,0,0,1,2.45,1.13,4.59,4.59,0,0,1,1,3.16,4.72,4.72,0,0,1-1,3.23,3.15,3.15,0,0,1-2.46,1.15,2.79,2.79,0,0,1-1.24-.27,4.29,4.29,0,0,1-1.18-.94V242h-2.2Zm2.18,4a3.22,3.22,0,0,0,.55,2.07,1.71,1.71,0,0,0,1.35.67,1.6,1.6,0,0,0,1.28-.62,3.22,3.22,0,0,0,.5-2,3,3,0,0,0-.52-1.94,1.62,1.62,0,0,0-1.3-.63,1.69,1.69,0,0,0-1.33.62A2.75,2.75,0,0,0,161.23,234.57Z"/><path d="M168.89,229.44v-2h2.2v2Zm0,9.42v-8.3h2.2v8.3Z"/><path d="M173.26,238.86V227.41h2.19v6.08l2.57-2.93h2.71l-2.84,3,3,5.26h-2.37l-2.08-3.73-1,1.08v2.65Z"/><path d="M182.16,238.86V227.41h2.19v6.08l2.57-2.93h2.7l-2.83,3,3,5.26h-2.37l-2.09-3.73-1,1.08v2.65Z"/><path d="M11.74,247.51l-1.41.15a.88.88,0,0,0-.23-.58.77.77,0,0,0-.56-.2A.73.73,0,0,0,9,247a.43.43,0,0,0-.18.33.66.66,0,0,0,.24.48,8.73,8.73,0,0,0,1.05.73,13.66,13.66,0,0,1,1.18.82,2.56,2.56,0,0,1,.63.74,1.73,1.73,0,0,1,.2.81,1.69,1.69,0,0,1-.24.88,2.19,2.19,0,0,1-.7.73,1.92,1.92,0,0,1,.47.62,1.58,1.58,0,0,1,.15.69,1.68,1.68,0,0,1-.56,1.27,2.39,2.39,0,0,1-1.64.51A2.49,2.49,0,0,1,8,255.13a2.06,2.06,0,0,1-.73-1.35l1.41-.17a1.14,1.14,0,0,0,.35.69.92.92,0,0,0,.65.24.77.77,0,0,0,.54-.18.57.57,0,0,0,.2-.43.59.59,0,0,0-.19-.43,13.75,13.75,0,0,0-1.37-.93,5.74,5.74,0,0,1-1.52-1.24,1.83,1.83,0,0,1-.36-1.1,2,2,0,0,1,.23-.94,1.89,1.89,0,0,1,.72-.71,1.92,1.92,0,0,1-.38-.56,1.36,1.36,0,0,1-.13-.58A1.51,1.51,0,0,1,8,246.26a2.25,2.25,0,0,1,1.52-.47,2.46,2.46,0,0,1,1.58.47A1.93,1.93,0,0,1,11.74,247.51Zm-1.29,4.42a2.24,2.24,0,0,0,.34-.39.78.78,0,0,0,.11-.37.59.59,0,0,0-.12-.34,3.22,3.22,0,0,0-.65-.57l-1.4-1a.94.94,0,0,0-.31.29.76.76,0,0,0-.13.4,1.27,1.27,0,0,0,.69,1Z"/><path d="M16.65,253.43H15.21V248a4.82,4.82,0,0,1-1.86,1.09v-1.3a4.19,4.19,0,0,0,1.23-.71,2.59,2.59,0,0,0,.9-1.2h1.17Z"/><path d="M18.81,247.35V246h4.92v1a8.16,8.16,0,0,0-1.24,1.72,10.13,10.13,0,0,0-1,2.39,8.57,8.57,0,0,0-.32,2.26H19.82a9.68,9.68,0,0,1,.64-3.18,11.06,11.06,0,0,1,1.62-2.9Z"/><path d="M25,253.43V252h1.44v1.44Z"/><path d="M37.19,253.43H35.54l-.66-1.71h-3l-.62,1.71H29.65l2.92-7.52h1.61Zm-2.8-3-1-2.79-1,2.79Z"/><path d="M38,253.43v-7.52h1.44v7.52Z"/><path d="M40.9,253.43v-7.52h1.44v7.52Z"/><path d="M46.23,251.88l1.44-.22a1,1,0,0,0,.38.63,1.21,1.21,0,0,0,.78.22,1.5,1.5,0,0,0,.85-.2.49.49,0,0,0,.19-.39.37.37,0,0,0-.11-.27,1.13,1.13,0,0,0-.48-.19,8,8,0,0,1-2.21-.7,1.41,1.41,0,0,1-.64-1.23,1.53,1.53,0,0,1,.55-1.19,2.64,2.64,0,0,1,1.74-.48,3,3,0,0,1,1.66.37,1.88,1.88,0,0,1,.75,1.07l-1.36.25a.84.84,0,0,0-.33-.48,1.17,1.17,0,0,0-.7-.17,1.49,1.49,0,0,0-.81.16.34.34,0,0,0-.17.29.31.31,0,0,0,.15.26,5.14,5.14,0,0,0,1.34.4,3.94,3.94,0,0,1,1.61.65,1.32,1.32,0,0,1,.45,1.07,1.63,1.63,0,0,1-.62,1.28,2.79,2.79,0,0,1-1.86.54,3.06,3.06,0,0,1-1.76-.45A2.07,2.07,0,0,1,46.23,251.88Z"/><path d="M55.07,248v1.15h-1v2.2a5.82,5.82,0,0,0,0,.77.36.36,0,0,0,.13.19.49.49,0,0,0,.25.07,1.9,1.9,0,0,0,.57-.14l.13,1.12a3,3,0,0,1-1.14.21,1.75,1.75,0,0,1-.7-.13,1,1,0,0,1-.46-.34,1.15,1.15,0,0,1-.2-.56,6.84,6.84,0,0,1,0-1v-2.38H52V248h.66V246.9l1.45-.84V248Z"/><path d="M57.15,249.65l-1.31-.24a2,2,0,0,1,.76-1.17,2.8,2.8,0,0,1,1.6-.38,3.44,3.44,0,0,1,1.43.23,1.39,1.39,0,0,1,.67.58,3.09,3.09,0,0,1,.19,1.29l0,1.68a6.48,6.48,0,0,0,.07,1.06,3.58,3.58,0,0,0,.26.73H59.38a3.64,3.64,0,0,1-.14-.43c0-.08,0-.14-.05-.17a2.65,2.65,0,0,1-.79.54,2.26,2.26,0,0,1-.9.18,1.9,1.9,0,0,1-1.33-.45,1.54,1.54,0,0,1-.48-1.16,1.5,1.5,0,0,1,.22-.82,1.38,1.38,0,0,1,.62-.55,4.92,4.92,0,0,1,1.14-.34,8,8,0,0,0,1.4-.35v-.15a.74.74,0,0,0-.2-.59,1.24,1.24,0,0,0-.78-.18,1,1,0,0,0-.6.16A1,1,0,0,0,57.15,249.65Zm1.92,1.16a7.08,7.08,0,0,1-.87.23,2.4,2.4,0,0,0-.79.25.58.58,0,0,0-.28.5.72.72,0,0,0,.23.53.81.81,0,0,0,.57.22,1.24,1.24,0,0,0,.74-.26.91.91,0,0,0,.35-.48,2.76,2.76,0,0,0,0-.7Z"/><path d="M66.86,253.43H65.42v-2.78a4.37,4.37,0,0,0-.09-1.14.76.76,0,0,0-.3-.4.84.84,0,0,0-.5-.15,1.13,1.13,0,0,0-.67.21,1,1,0,0,0-.41.54,4.92,4.92,0,0,0-.11,1.25v2.47H61.9V248h1.34v.8a2.18,2.18,0,0,1,1.79-.92,2.21,2.21,0,0,1,.87.17,1.42,1.42,0,0,1,.6.44,1.48,1.48,0,0,1,.28.61,4.6,4.6,0,0,1,.08,1Z"/><path d="M67.82,251.88l1.44-.22a1,1,0,0,0,.38.63,1.21,1.21,0,0,0,.78.22,1.5,1.5,0,0,0,.85-.2.49.49,0,0,0,.19-.39.37.37,0,0,0-.11-.27,1.13,1.13,0,0,0-.48-.19,8,8,0,0,1-2.21-.7,1.41,1.41,0,0,1-.64-1.23,1.53,1.53,0,0,1,.55-1.19,2.64,2.64,0,0,1,1.74-.48,3,3,0,0,1,1.66.37,1.88,1.88,0,0,1,.75,1.07l-1.36.25a.84.84,0,0,0-.33-.48,1.17,1.17,0,0,0-.7-.17,1.49,1.49,0,0,0-.81.16.34.34,0,0,0-.17.29.31.31,0,0,0,.15.26,5.14,5.14,0,0,0,1.34.4,3.94,3.94,0,0,1,1.61.65,1.32,1.32,0,0,1,.45,1.07,1.63,1.63,0,0,1-.62,1.28,2.79,2.79,0,0,1-1.86.54,3.06,3.06,0,0,1-1.76-.45A2.07,2.07,0,0,1,67.82,251.88Z"/><path d="M77.08,247.25v-1.34h1.44v1.34Zm0,6.18V248h1.44v5.45Z"/><path d="M82.41,251.88l1.44-.22a1,1,0,0,0,.38.63,1.22,1.22,0,0,0,.79.22,1.49,1.49,0,0,0,.84-.2.49.49,0,0,0,.19-.39.37.37,0,0,0-.11-.27,1.13,1.13,0,0,0-.48-.19,8,8,0,0,1-2.21-.7,1.41,1.41,0,0,1-.64-1.23,1.5,1.5,0,0,1,.56-1.19,2.61,2.61,0,0,1,1.73-.48,3,3,0,0,1,1.66.37,1.88,1.88,0,0,1,.75,1.07l-1.36.25a.84.84,0,0,0-.33-.48,1.17,1.17,0,0,0-.7-.17,1.49,1.49,0,0,0-.81.16.34.34,0,0,0-.17.29.31.31,0,0,0,.15.26,5.14,5.14,0,0,0,1.34.4,3.94,3.94,0,0,1,1.61.65,1.32,1.32,0,0,1,.45,1.07,1.63,1.63,0,0,1-.62,1.28,2.78,2.78,0,0,1-1.85.54,3,3,0,0,1-1.76-.45A2,2,0,0,1,82.41,251.88Z"/><path d="M88.07,248H89.6l1.31,3.87L92.18,248h1.49l-1.92,5.24-.35.95a3.29,3.29,0,0,1-.36.73,1.53,1.53,0,0,1-.39.41,1.86,1.86,0,0,1-.55.24,2.78,2.78,0,0,1-.74.09,3.72,3.72,0,0,1-.81-.09l-.13-1.13a2.85,2.85,0,0,0,.61.07.91.91,0,0,0,.74-.29,2,2,0,0,0,.37-.75Z"/><path d="M94.54,253.43v-7.52H96v4L97.67,248h1.77l-1.86,2,2,3.46H98L96.65,251l-.67.71v1.74Z"/><path d="M100.38,253.43v-7.52h1.44v4l1.69-1.92h1.77l-1.86,2,2,3.46h-1.56L102.49,251l-.67.71v1.74Z"/><path d="M109.43,251.7l1.43.24a2.35,2.35,0,0,1-.87,1.2,2.55,2.55,0,0,1-1.5.41,2.44,2.44,0,0,1-2.1-.93,3.09,3.09,0,0,1-.54-1.87,3,3,0,0,1,.71-2.12,2.34,2.34,0,0,1,1.79-.77,2.44,2.44,0,0,1,1.92.8,3.62,3.62,0,0,1,.67,2.46h-3.61a1.47,1.47,0,0,0,.35,1,1.08,1.08,0,0,0,.83.36.93.93,0,0,0,.57-.19A1.16,1.16,0,0,0,109.43,251.7Zm.08-1.46a1.41,1.41,0,0,0-.32-1,1,1,0,0,0-.75-.33,1,1,0,0,0-.78.35,1.32,1.32,0,0,0-.31.93Z"/><path d="M112.11,253.43v-7.52h1.44v7.52Z"/><path d="M114.4,248h.8v-.41a2.89,2.89,0,0,1,.14-1,1.15,1.15,0,0,1,.54-.55,2.12,2.12,0,0,1,1-.21,4.06,4.06,0,0,1,1.2.18l-.19,1a3.14,3.14,0,0,0-.67-.08.57.57,0,0,0-.44.15.79.79,0,0,0-.14.56V248h1.08v1.14h-1.08v4.31H115.2v-4.31h-.8Z"/><path d="M121.68,251.7l1.43.24a2.35,2.35,0,0,1-.87,1.2,2.54,2.54,0,0,1-1.49.41,2.45,2.45,0,0,1-2.11-.93,3.16,3.16,0,0,1-.53-1.87,3,3,0,0,1,.7-2.12,2.35,2.35,0,0,1,1.79-.77,2.44,2.44,0,0,1,1.92.8,3.56,3.56,0,0,1,.67,2.46h-3.61a1.47,1.47,0,0,0,.35,1,1.08,1.08,0,0,0,.83.36.89.89,0,0,0,.57-.19A1.16,1.16,0,0,0,121.68,251.7Zm.08-1.46a1.41,1.41,0,0,0-.32-1,1,1,0,0,0-.75-.33,1,1,0,0,0-.78.35,1.32,1.32,0,0,0-.3.93Z"/><path d="M124.37,253.43v-7.52h1.44v7.52Z"/><path d="M129.78,248v1.15h-1v2.2a5.82,5.82,0,0,0,0,.77.36.36,0,0,0,.13.19.49.49,0,0,0,.25.07,1.9,1.9,0,0,0,.57-.14l.13,1.12a3,3,0,0,1-1.14.21,1.75,1.75,0,0,1-.7-.13,1,1,0,0,1-.46-.34,1.15,1.15,0,0,1-.2-.56,6.84,6.84,0,0,1-.05-1v-2.38h-.66V248h.66V246.9l1.45-.84V248Z"/><path d="M133.93,251.7l1.44.24a2.43,2.43,0,0,1-.88,1.2,2.5,2.5,0,0,1-1.49.41,2.42,2.42,0,0,1-2.1-.93,3.09,3.09,0,0,1-.54-1.87,3,3,0,0,1,.71-2.12,2.32,2.32,0,0,1,1.79-.77,2.4,2.4,0,0,1,1.91.8,3.51,3.51,0,0,1,.67,2.46h-3.6a1.47,1.47,0,0,0,.34,1,1.1,1.1,0,0,0,.84.36.88.88,0,0,0,.56-.19A1.1,1.1,0,0,0,133.93,251.7Zm.08-1.46a1.36,1.36,0,0,0-.32-1,1,1,0,0,0-.75-.33,1,1,0,0,0-.78.35,1.37,1.37,0,0,0-.3.93Z"/><path d="M139.12,248v1.15h-1v2.2a5,5,0,0,0,0,.77.31.31,0,0,0,.13.19.45.45,0,0,0,.24.07,2,2,0,0,0,.58-.14l.12,1.12a2.88,2.88,0,0,1-1.13.21,1.8,1.8,0,0,1-.71-.13,1,1,0,0,1-.46-.34,1.4,1.4,0,0,1-.2-.56,7.36,7.36,0,0,1,0-1v-2.38H136V248h.67V246.9l1.44-.84V248Z"/><path d="M146.19,251.7l1.43.24a2.35,2.35,0,0,1-.87,1.2,2.55,2.55,0,0,1-1.5.41,2.44,2.44,0,0,1-2.1-.93,3.09,3.09,0,0,1-.54-1.87,3,3,0,0,1,.71-2.12,2.34,2.34,0,0,1,1.79-.77,2.44,2.44,0,0,1,1.92.8,3.56,3.56,0,0,1,.67,2.46h-3.61a1.47,1.47,0,0,0,.35,1,1.08,1.08,0,0,0,.83.36.93.93,0,0,0,.57-.19A1.16,1.16,0,0,0,146.19,251.7Zm.08-1.46a1.41,1.41,0,0,0-.32-1,1,1,0,0,0-.75-.33,1,1,0,0,0-.78.35,1.32,1.32,0,0,0-.31.93Z"/><path d="M150.25,253.43h-1.44V248h1.34v.78a2.12,2.12,0,0,1,.62-.72,1.1,1.1,0,0,1,.62-.18,1.85,1.85,0,0,1,1,.27l-.45,1.26a1.25,1.25,0,0,0-.67-.24.81.81,0,0,0-.52.17,1.13,1.13,0,0,0-.33.6,8.62,8.62,0,0,0-.12,1.83Z"/><path d="M155.25,248H156v-.41a2.64,2.64,0,0,1,.15-1,1.15,1.15,0,0,1,.54-.55,2.07,2.07,0,0,1,1-.21,4.17,4.17,0,0,1,1.21.18l-.2,1a3.13,3.13,0,0,0-.66-.08.58.58,0,0,0-.45.15.85.85,0,0,0-.13.56V248h1.07v1.14h-1.07v4.31H156v-4.31h-.79Z"/><path d="M159,250.63a3,3,0,0,1,.35-1.39,2.37,2.37,0,0,1,1-1,2.9,2.9,0,0,1,1.44-.36,2.74,2.74,0,0,1,2,.8,3,3,0,0,1,0,4.08,2.7,2.7,0,0,1-2,.81,3.06,3.06,0,0,1-1.42-.34,2.27,2.27,0,0,1-1-1A3.34,3.34,0,0,1,159,250.63Zm1.48.08a1.79,1.79,0,0,0,.38,1.24,1.21,1.21,0,0,0,.95.43,1.18,1.18,0,0,0,.94-.43,1.82,1.82,0,0,0,.39-1.25,1.75,1.75,0,0,0-.39-1.23,1.18,1.18,0,0,0-.94-.43,1.21,1.21,0,0,0-.95.43A1.77,1.77,0,0,0,160.52,250.71Z"/><path d="M167.17,253.43h-1.44V248h1.33v.78a2.24,2.24,0,0,1,.62-.72,1.1,1.1,0,0,1,.62-.18,1.83,1.83,0,0,1,.95.27l-.44,1.26a1.27,1.27,0,0,0-.68-.24.8.8,0,0,0-.51.17,1.13,1.13,0,0,0-.33.6,8.62,8.62,0,0,0-.12,1.83Z"/><path d="M169.81,253.43v-7.52h1.44v2.71a2,2,0,0,1,1.58-.76,2.15,2.15,0,0,1,1.65.72,3,3,0,0,1,.65,2.07,3.11,3.11,0,0,1-.67,2.15,2.05,2.05,0,0,1-2.53.52,2.32,2.32,0,0,1-.78-.69v.8Zm1.43-2.84a2.3,2.3,0,0,0,.27,1.25,1.14,1.14,0,0,0,1,.57,1,1,0,0,0,.82-.4,2,2,0,0,0,.33-1.29,2.07,2.07,0,0,0-.34-1.34,1,1,0,0,0-.86-.42,1.1,1.1,0,0,0-.87.41A1.87,1.87,0,0,0,171.24,250.59Z"/><path d="M179.87,253.43v-.82a2.08,2.08,0,0,1-.78.69,2.17,2.17,0,0,1-1,.25,2,2,0,0,1-1-.24,1.39,1.39,0,0,1-.63-.68,3,3,0,0,1-.19-1.2V248h1.44v2.51a6.34,6.34,0,0,0,.08,1.4.72.72,0,0,0,.29.41.82.82,0,0,0,.53.16,1.13,1.13,0,0,0,.66-.21,1,1,0,0,0,.4-.5,5.89,5.89,0,0,0,.11-1.47V248h1.44v5.45Z"/><path d="M187.69,253.43h-1.33v-.8a2.23,2.23,0,0,1-.79.69,1.93,1.93,0,0,1-.92.23,2.07,2.07,0,0,1-1.6-.75,3.07,3.07,0,0,1-.67-2.11,3,3,0,0,1,.65-2.11,2.11,2.11,0,0,1,1.64-.72,2,2,0,0,1,1.58.76v-2.71h1.44Zm-3.84-2.84a2.5,2.5,0,0,0,.24,1.26,1.1,1.1,0,0,0,1.82.14,2,2,0,0,0,.35-1.26,2.09,2.09,0,0,0-.34-1.35,1.07,1.07,0,0,0-.87-.42,1.09,1.09,0,0,0-.86.41A1.85,1.85,0,0,0,183.85,250.59Z"/><path d="M191.61,248v1.15h-1v2.2c0,.44,0,.7,0,.77a.36.36,0,0,0,.13.19.49.49,0,0,0,.25.07,2,2,0,0,0,.58-.14l.12,1.12a3,3,0,0,1-1.14.21,1.75,1.75,0,0,1-.7-.13,1,1,0,0,1-.46-.34,1.15,1.15,0,0,1-.2-.56,6.84,6.84,0,0,1,0-1v-2.38h-.66V248h.66V246.9l1.45-.84V248Z"/><path d="M72.34,208.33a4.11,4.11,0,0,1,3.42,1.56q1.45,1.85,1.46,6.12c0,2.84-.49,4.89-1.47,6.13a4.1,4.1,0,0,1-3.41,1.54A4.3,4.3,0,0,1,68.8,222c-.89-1.12-1.34-3.13-1.34-6s.49-4.87,1.48-6.11A4.08,4.08,0,0,1,72.34,208.33Zm0,2.39a1.43,1.43,0,0,0-.93.33,2.29,2.29,0,0,0-.64,1.2,17,17,0,0,0-.29,3.76,16.41,16.41,0,0,0,.26,3.64,2.55,2.55,0,0,0,.67,1.31,1.43,1.43,0,0,0,.93.33,1.48,1.48,0,0,0,.94-.33,2.24,2.24,0,0,0,.63-1.2,24,24,0,0,0,0-7.38,2.67,2.67,0,0,0-.67-1.33A1.43,1.43,0,0,0,72.34,210.72Z"/><path d="M84,208.33a4.11,4.11,0,0,1,3.42,1.56q1.45,1.85,1.46,6.12c0,2.84-.49,4.89-1.47,6.13A4.1,4.1,0,0,1,84,223.68,4.3,4.3,0,0,1,80.48,222c-.89-1.12-1.34-3.13-1.34-6s.49-4.87,1.48-6.11A4.08,4.08,0,0,1,84,208.33Zm0,2.39a1.43,1.43,0,0,0-.93.33,2.22,2.22,0,0,0-.64,1.2,25,25,0,0,0,0,7.4,2.55,2.55,0,0,0,.67,1.31A1.48,1.48,0,0,0,85,221a2.18,2.18,0,0,0,.64-1.2,24,24,0,0,0,0-7.38,2.67,2.67,0,0,0-.67-1.33A1.43,1.43,0,0,0,84,210.72Z"/><path d="M97,219.42v-2.89h5.66v2.89Z"/><path d="M119.22,220.75v2.67h-10.1a6.88,6.88,0,0,1,1-2.87,18.61,18.61,0,0,1,3.24-3.61,20.91,20.91,0,0,0,2.39-2.46,3.19,3.19,0,0,0,.59-1.76,2,2,0,0,0-.52-1.48,2.19,2.19,0,0,0-2.86,0,2.81,2.81,0,0,0-.62,1.81l-2.87-.29a4.69,4.69,0,0,1,1.61-3.41,5.41,5.41,0,0,1,3.39-1,4.88,4.88,0,0,1,3.49,1.2,3.92,3.92,0,0,1,1.27,3,5.3,5.3,0,0,1-.36,1.94,8,8,0,0,1-1.15,1.92,19.72,19.72,0,0,1-1.89,1.92c-.91.83-1.49,1.38-1.73,1.66a5,5,0,0,0-.59.8Z"/><path d="M126.82,223.42v-3h-6.15v-2.52l6.52-9.55h2.42v9.54h1.87v2.53h-1.87v3Zm0-5.55v-5.14l-3.45,5.14Z"/><rect class="cls-3" x="3" y="3" width="194" height="194" rx="8"/><path class="cls-2" d="M189,6a5,5,0,0,1,5,5V189a5,5,0,0,1-5,5H11a5,5,0,0,1-5-5V11a5,5,0,0,1,5-5H189m0-6H11A11,11,0,0,0,0,11V189a11,11,0,0,0,11,11H189a11,11,0,0,0,11-11V11A11,11,0,0,0,189,0Z"/><path class="cls-4" d="M108.09,118.21s-15.26,12-9.64,24.23"/><path class="cls-4" d="M132,142.4c2.38-7.64-2.52-15.45-2.52-15.45"/><path class="cls-4" d="M142.4,121c.43,10.08,15.62,7.73,15.62,7.73"/><path class="cls-4" d="M157.64,97s13,2,15.41,11.08"/><path class="cls-4" d="M160.17,83.55s14.1-.85,18.24,5.68"/><path class="cls-4" d="M155.85,106.79S159.33,118.46,169,121"/><path class="cls-4" d="M126,121.24s-8.89,5-10.49,20.22"/><path class="cls-2" d="M38.13,145.93s-9.81-19-13.9-14.26c-1.65,1.88-2.67,3.73-1.93,7.43s3.57,10.07.92,21.77,6.24,17.62,9.65,19.25,12.74,4,19.54-2.4,7-10.27,7.34-12.64,2.09-8.12-4.22-12.44C50.61,149.27,38.13,145.93,38.13,145.93Z"/><path class="cls-4" d="M88,109.54s3.13,13.77-2.63,18.92"/><path class="cls-2" d="M71.88,104.21C67,108,61,120,58,127c-3.77,8.81-4.37,25.82-5,35-6.46-5.24-16.43-12.21-22.85-17.43C34,129,37.72,115.66,47,99c14.56-26.14,42-55.22,60.69-78.19.4.26.75.44,1.06.69C123,33.12,137.44,44.61,151.58,56.42,165.05,67.68,170,87.15,164,103.7a43.59,43.59,0,0,1-47.89,28.74,42,42,0,0,1-20.4-8.9c-7.39-5.92-14.72-11.92-22.08-17.89Zm14.9-18,1.64,1.33c6.1,5,12.18,9.93,18.31,14.83a33.5,33.5,0,0,0,4.73,3.19c7.91,4.38,18.68,2.55,24.42-4.08,8.05-9.28,6.92-22.14-2.63-29.92q-9.68-7.87-19.37-15.73l-1.47-1.19Z"/><path class="cls-5" d="M152.51,260.86l.25-1.25h-.49v-.44h.58l.21-1.06h-.79v-.44h.88l.26-1.26h.44l-.26,1.26h.93l.25-1.26h.44l-.25,1.26h.5v.44h-.59l-.22,1.06h.81v.44h-.9l-.25,1.25h-.44l.25-1.25h-.92l-.26,1.25Zm.78-1.69h.92l.22-1.06h-.93Z"/><path class="cls-5" d="M155.73,259.85l.52-.08a.74.74,0,0,0,.24.48.85.85,0,0,0,.56.17.83.83,0,0,0,.54-.15.44.44,0,0,0,.18-.35.31.31,0,0,0-.16-.28,3.13,3.13,0,0,0-.54-.18,4.55,4.55,0,0,1-.8-.25.81.81,0,0,1-.34-.29.79.79,0,0,1-.12-.42.76.76,0,0,1,.1-.39.8.8,0,0,1,.26-.29,1.27,1.27,0,0,1,.33-.16,1.7,1.7,0,0,1,.46-.06,1.79,1.79,0,0,1,.64.11.85.85,0,0,1,.41.28,1,1,0,0,1,.18.48l-.51.07a.6.6,0,0,0-.21-.37A.73.73,0,0,0,157,258a.84.84,0,0,0-.52.12.35.35,0,0,0-.16.29.26.26,0,0,0,.07.18.45.45,0,0,0,.2.14l.47.14a8,8,0,0,1,.78.24.78.78,0,0,1,.34.28.73.73,0,0,1,.13.45.88.88,0,0,1-.15.49,1.1,1.1,0,0,1-.45.37,1.67,1.67,0,0,1-.65.12,1.45,1.45,0,0,1-.93-.25A1.15,1.15,0,0,1,155.73,259.85Z"/><path class="cls-5" d="M158.91,262l-.06-.49a1.25,1.25,0,0,0,.31,0,.58.58,0,0,0,.28-.06.52.52,0,0,0,.17-.16,2.29,2.29,0,0,0,.16-.39l0-.13-1.18-3.12h.57l.64,1.8c.09.23.16.47.23.72a5.83,5.83,0,0,1,.22-.71l.66-1.81h.53l-1.19,3.16a5.07,5.07,0,0,1-.29.71,1.13,1.13,0,0,1-.32.38.81.81,0,0,1-.44.12A1.16,1.16,0,0,1,158.91,262Z"/><path class="cls-5" d="M161.94,260.78v-4.29h.53v2.45l1.24-1.27h.69l-1.19,1.16,1.31,1.95h-.65l-1-1.59-.37.36v1.23Z"/><path class="cls-5" d="M164.94,260.78v-4.29h.53v2.45l1.24-1.27h.69l-1.19,1.16,1.31,1.95h-.65l-1-1.59-.37.36v1.23Z"/><path class="cls-5" d="M170.07,259.78l.54.07a1.32,1.32,0,0,1-.48.74,1.47,1.47,0,0,1-.89.26,1.43,1.43,0,0,1-1.08-.42,1.62,1.62,0,0,1-.4-1.18,1.77,1.77,0,0,1,.4-1.22,1.4,1.4,0,0,1,1.05-.43,1.3,1.3,0,0,1,1,.43,1.65,1.65,0,0,1,.4,1.19v.14h-2.32a1.15,1.15,0,0,0,.29.79.86.86,0,0,0,.65.27.81.81,0,0,0,.49-.15A1,1,0,0,0,170.07,259.78Zm-1.74-.85h1.74a1,1,0,0,0-.2-.59.82.82,0,0,0-.65-.31.85.85,0,0,0-.61.25A1,1,0,0,0,168.33,258.93Z"/><path class="cls-5" d="M171.26,260.78v-4.29h.53v4.29Z"/><path class="cls-5" d="M172.61,260.78v-3.11h.47v.44a1.15,1.15,0,0,1,.39-.37,1.19,1.19,0,0,1,1.12,0,.81.81,0,0,1,.31.41,1.12,1.12,0,0,1,1-.55.94.94,0,0,1,.71.26,1.07,1.07,0,0,1,.25.79v2.13h-.52v-2a1.54,1.54,0,0,0-.05-.45.48.48,0,0,0-.19-.23.66.66,0,0,0-.32-.08.7.7,0,0,0-.54.22.91.91,0,0,0-.22.69v1.81h-.53v-2a1,1,0,0,0-.12-.53.52.52,0,0,0-.43-.17.87.87,0,0,0-.41.11.68.68,0,0,0-.27.35,1.8,1.8,0,0,0-.09.65v1.61Z"/><path class="cls-5" d="M179.63,260.4a2.05,2.05,0,0,1-.56.35,1.57,1.57,0,0,1-.58.1,1.12,1.12,0,0,1-.79-.25.84.84,0,0,1-.27-.64.87.87,0,0,1,.1-.42,1,1,0,0,1,.27-.3,1.46,1.46,0,0,1,.38-.17,2.61,2.61,0,0,1,.47-.08,4.72,4.72,0,0,0,.94-.18v-.14a.57.57,0,0,0-.15-.45.86.86,0,0,0-.6-.18.93.93,0,0,0-.55.13.83.83,0,0,0-.26.46l-.51-.07a1.21,1.21,0,0,1,.23-.54,1,1,0,0,1,.46-.31,2.2,2.2,0,0,1,.71-.11,2,2,0,0,1,.65.09,1,1,0,0,1,.36.24.8.8,0,0,1,.17.36,4.72,4.72,0,0,1,0,.49v.7a5.84,5.84,0,0,0,0,.93,1,1,0,0,0,.13.37h-.55A1.41,1.41,0,0,1,179.63,260.4Zm0-1.18a3.53,3.53,0,0,1-.86.2,1.8,1.8,0,0,0-.46.11.39.39,0,0,0-.21.17.47.47,0,0,0,.09.6.68.68,0,0,0,.46.14,1.09,1.09,0,0,0,.55-.13.89.89,0,0,0,.35-.37,1.4,1.4,0,0,0,.08-.53Z"/><path class="cls-5" d="M181.07,260.78v-2.7h-.47v-.41h.47v-.33a1.81,1.81,0,0,1,.05-.47.71.71,0,0,1,.27-.33,1,1,0,0,1,.54-.13,2.25,2.25,0,0,1,.49.06l-.08.46-.31,0a.46.46,0,0,0-.34.1.54.54,0,0,0-.1.38v.29h.61v.41h-.61v2.7Z"/><path class="cls-5" d="M182.61,257.09v-.6h.53v.6Zm0,3.69v-3.11h.53v3.11Z"/><path class="cls-5" d="M186,260.4a2.05,2.05,0,0,1-.56.35,1.61,1.61,0,0,1-.58.1,1.1,1.1,0,0,1-.79-.25.81.81,0,0,1-.28-.64.88.88,0,0,1,.11-.42,1,1,0,0,1,.27-.3,1.46,1.46,0,0,1,.38-.17A2.61,2.61,0,0,1,185,259a4.88,4.88,0,0,0,.94-.18v-.14a.57.57,0,0,0-.15-.45.86.86,0,0,0-.6-.18.91.91,0,0,0-.55.13.78.78,0,0,0-.26.46l-.52-.07a1.49,1.49,0,0,1,.23-.54,1.08,1.08,0,0,1,.47-.31,2.16,2.16,0,0,1,.71-.11,1.89,1.89,0,0,1,.64.09,1,1,0,0,1,.37.24.79.79,0,0,1,.16.36,2.62,2.62,0,0,1,0,.49v.7a8.38,8.38,0,0,0,0,.93,1.28,1.28,0,0,0,.14.37h-.55A1.12,1.12,0,0,1,186,260.4Zm0-1.18a3.53,3.53,0,0,1-.86.2,1.8,1.8,0,0,0-.46.11.39.39,0,0,0-.21.17.44.44,0,0,0-.08.25.46.46,0,0,0,.16.35.73.73,0,0,0,.47.14,1.05,1.05,0,0,0,.54-.13.78.78,0,0,0,.35-.37,1.2,1.2,0,0,0,.09-.53Z"/><path class="cls-5" d="M189.41,259.78l.54.07a1.31,1.31,0,0,1-.47.74,1.5,1.5,0,0,1-.9.26,1.43,1.43,0,0,1-1.08-.42,1.67,1.67,0,0,1-.4-1.18,1.73,1.73,0,0,1,.41-1.22,1.4,1.4,0,0,1,1.05-.43,1.29,1.29,0,0,1,1,.43,1.65,1.65,0,0,1,.4,1.19v.14h-2.32a1.2,1.2,0,0,0,.29.79.86.86,0,0,0,.65.27.79.79,0,0,0,.49-.15A1,1,0,0,0,189.41,259.78Zm-1.73-.85h1.73a1,1,0,0,0-.2-.59.8.8,0,0,0-.65-.31.85.85,0,0,0-.61.25A.9.9,0,0,0,187.68,258.93Z"/><path class="cls-5" d="M190.61,260.78v-3.11h.48v.44a1.12,1.12,0,0,1,1-.51,1.27,1.27,0,0,1,.52.1.89.89,0,0,1,.35.27,1,1,0,0,1,.16.39,2.81,2.81,0,0,1,0,.51v1.91h-.52v-1.89a1.15,1.15,0,0,0-.07-.48.53.53,0,0,0-.21-.26.75.75,0,0,0-.37-.09.84.84,0,0,0-.58.21,1,1,0,0,0-.25.81v1.7Z"/></g></g></svg>