<svg xmlns="http://www.w3.org/2000/svg" viewBox="0 0 272.87 305.42"><defs><style>.cls-1{fill:#fff;}.cls-2{fill:#043087;}.cls-3{fill:none;stroke:#fff;stroke-miterlimit:10;stroke-width:2px;}.cls-4{fill:#1a1a1a;}</style></defs><g id="Layer_2" data-name="Layer 2"><g id="sticker"><path class="cls-1" d="M226.34,184.94s-47,44,1,62l-90.4,1.8,25.4-56.8Z"/><path class="cls-1" d="M45.94,184.94s47,44-1,62l90.4,1.8-25.4-56.8Z"/><path class="cls-2" d="M136.44,269.87a8.94,8.94,0,0,1-6.37-2.62L5.62,142.8a9,9,0,0,1,0-12.73L130.07,5.62a9,9,0,0,1,12.73,0L267.25,130.07a9,9,0,0,1,0,12.73L142.8,267.25A8.93,8.93,0,0,1,136.44,269.87Z"/><path class="cls-1" d="M136.44,6a6,6,0,0,1,4.24,1.74L265.13,132.19a6,6,0,0,1,0,8.49L140.68,265.13a6,6,0,0,1-8.49,0L7.74,140.68a6,6,0,0,1,0-8.49L132.19,7.74A6,6,0,0,1,136.44,6m0-6A12,12,0,0,0,128,3.5L3.5,128a12,12,0,0,0,0,17L128,269.37a12,12,0,0,0,17,0L269.37,144.92a12,12,0,0,0,0-17L144.92,3.5A12,12,0,0,0,136.44,0Z"/><path class="cls-1" d="M109.21,129.55,88.66,150.09,68.26,170.5,50.75,153,153.44,50.29c.37.3.7.52,1,.79,13,13,26.16,26,39,39.16,12.24,12.59,15.14,32.47,7.49,48.31A43.62,43.62,0,0,1,150.3,162.2a42.18,42.18,0,0,1-19.38-11c-6.73-6.66-13.4-13.39-20.1-20.08C110.34,130.67,109.85,130.19,109.21,129.55Zm16.68-16.41,1.5,1.49c5.55,5.56,11.08,11.13,16.68,16.65a33.82,33.82,0,0,0,4.37,3.65c7.42,5.18,18.32,4.47,24.72-1.53,9-8.4,9.16-21.31.46-30Q164.82,94.54,156,85.73l-1.33-1.34Z"/><path class="cls-3" d="M143.79,147.21s-16.42,10.36-12.09,23.1"/><path class="cls-3" d="M165.05,173.74c3.15-7.35-.92-15.63-.92-15.63"/><path class="cls-3" d="M177.62,153.56c-.62,10.07,14.74,9.3,14.74,9.3"/><path class="cls-3" d="M195.26,131.21s12.74,3.28,14.18,12.61"/><path class="cls-3" d="M199.16,118.11s14.11.61,17.56,7.53"/><path class="cls-3" d="M192.46,140.78s2.26,12,11.65,15.45"/><path class="cls-3" d="M161.29,152.07s-9.37,4.07-12.52,19"/><path class="cls-1" d="M68,148s4.93-18.95-.74-18.27a6.92,6.92,0,0,0-5.88,3.9c-1.76,3-3.74,9.06-12.73,15.42s-6.54,15.85-5.21,19,6.25,10.54,14.81,10.36,11.1-2.69,12.76-4.13,6.41-4.26,4.75-11.08C74.46,157.9,68,148,68,148Z"/><path class="cls-3" d="M124.67,136.51s1.7,14-4.57,18.55"/><rect class="cls-1" x="37.7" y="241.79" width="197" height="62.13"/><path class="cls-4" d="M233.21,243.29v59.13h-194V243.29h194m3-3h-200v65.13h200V240.29Z"/><path d="M52.19,279.3V268.56h2.16V279.3Z"/><path d="M56.33,279.3V268.56h2.06v5.7l2.41-2.74h2.53l-2.66,2.84,2.85,4.94H61.3l-1.95-3.5-1,1v2.49Z"/><path d="M64.67,279.3V268.56h2.06v5.7l2.41-2.74h2.54L69,274.36l2.85,4.94H69.65l-2-3.5-1,1v2.49Z"/><path d="M77.59,276.82l2,.35a3.35,3.35,0,0,1-1.24,1.71,3.65,3.65,0,0,1-2.14.59,3.48,3.48,0,0,1-3-1.32,4.41,4.41,0,0,1-.77-2.68,4.27,4.27,0,0,1,1-3,3.34,3.34,0,0,1,2.56-1.1,3.45,3.45,0,0,1,2.73,1.15,5,5,0,0,1,1,3.51H74.6a2.06,2.06,0,0,0,.5,1.43,1.54,1.54,0,0,0,1.18.51,1.26,1.26,0,0,0,.82-.27A1.59,1.59,0,0,0,77.59,276.82Zm.12-2.08a2,2,0,0,0-.46-1.36,1.49,1.49,0,0,0-2.18,0,1.89,1.89,0,0,0-.44,1.33Z"/><path d="M85.54,271.52h1.92v1.14a2.88,2.88,0,0,1,2.42-1.32,3,3,0,0,1,2.3,1.06,4.31,4.31,0,0,1,.95,3,4.45,4.45,0,0,1-.95,3,3,3,0,0,1-2.31,1.08,2.64,2.64,0,0,1-1.17-.25,3.92,3.92,0,0,1-1.1-.88v3.92H85.54Zm2,3.76a3,3,0,0,0,.52,1.93,1.56,1.56,0,0,0,1.26.63,1.51,1.51,0,0,0,1.2-.57,3,3,0,0,0,.47-1.89,2.81,2.81,0,0,0-.49-1.82,1.51,1.51,0,0,0-1.21-.59,1.59,1.59,0,0,0-1.26.58A2.61,2.61,0,0,0,87.58,275.28Z"/><path d="M96.3,273.89l-1.87-.33a2.85,2.85,0,0,1,1.09-1.67,3.87,3.87,0,0,1,2.28-.55,4.86,4.86,0,0,1,2,.33,2,2,0,0,1,1,.83,4.3,4.3,0,0,1,.27,1.84l0,2.4a8.86,8.86,0,0,0,.1,1.51,4.57,4.57,0,0,0,.37,1.05h-2a6.25,6.25,0,0,1-.2-.61c0-.12-.06-.2-.08-.24a3.68,3.68,0,0,1-1.12.77,3.26,3.26,0,0,1-1.29.25,2.62,2.62,0,0,1-1.89-.65,2.34,2.34,0,0,1-.38-2.82,2,2,0,0,1,.89-.79,6.18,6.18,0,0,1,1.63-.48,10.54,10.54,0,0,0,2-.51V274a1.05,1.05,0,0,0-.29-.85,1.74,1.74,0,0,0-1.11-.25,1.48,1.48,0,0,0-.85.21A1.53,1.53,0,0,0,96.3,273.89Zm2.75,1.67c-.26.09-.68.19-1.25.32a3.67,3.67,0,0,0-1.12.36.85.85,0,0,0-.4.72,1,1,0,0,0,.32.75,1.12,1.12,0,0,0,.82.31,1.78,1.78,0,0,0,1.06-.36A1.34,1.34,0,0,0,99,277a3.82,3.82,0,0,0,.08-1Z"/><path d="M105.07,279.3h-2v-7.78h1.91v1.1a3.31,3.31,0,0,1,.88-1,1.68,1.68,0,0,1,.89-.25,2.57,2.57,0,0,1,1.35.39l-.63,1.8a1.78,1.78,0,0,0-1-.34,1.13,1.13,0,0,0-.73.24,1.58,1.58,0,0,0-.47.86,11.66,11.66,0,0,0-.18,2.61Z"/><path d="M108.87,279.3V268.56h2.06v5.7l2.41-2.74h2.53l-2.66,2.84,2.85,4.94h-2.22l-2-3.5-1,1v2.49Z"/><path d="M121.79,276.82l2,.35a3.37,3.37,0,0,1-1.25,1.71,3.63,3.63,0,0,1-2.14.59,3.48,3.48,0,0,1-3-1.32,4.47,4.47,0,0,1-.77-2.68,4.31,4.31,0,0,1,1-3,3.35,3.35,0,0,1,2.56-1.1,3.47,3.47,0,0,1,2.74,1.15,5,5,0,0,1,1,3.51h-5.16a2.11,2.11,0,0,0,.5,1.43,1.56,1.56,0,0,0,1.19.51,1.24,1.24,0,0,0,.81-.27A1.59,1.59,0,0,0,121.79,276.82Zm.12-2.08a2,2,0,0,0-.47-1.36,1.49,1.49,0,0,0-2.18,0,1.89,1.89,0,0,0-.43,1.33Z"/><path d="M127.6,279.3h-2.06v-7.78h1.91v1.1a3.44,3.44,0,0,1,.88-1,1.68,1.68,0,0,1,.89-.25,2.63,2.63,0,0,1,1.36.39l-.64,1.8a1.78,1.78,0,0,0-1-.34,1.13,1.13,0,0,0-.73.24,1.58,1.58,0,0,0-.47.86,11.87,11.87,0,0,0-.17,2.61Z"/><path d="M134.91,277.08l2.06-.32a1.55,1.55,0,0,0,.54.92,1.82,1.82,0,0,0,1.12.31,2,2,0,0,0,1.2-.3.63.63,0,0,0,.28-.55.52.52,0,0,0-.15-.38,1.55,1.55,0,0,0-.69-.27,11.37,11.37,0,0,1-3.16-1,2,2,0,0,1-.92-1.75,2.17,2.17,0,0,1,.8-1.7,3.72,3.72,0,0,1,2.47-.69,4.4,4.4,0,0,1,2.38.52,2.68,2.68,0,0,1,1.07,1.54l-1.94.36a1.25,1.25,0,0,0-.48-.7,1.72,1.72,0,0,0-1-.24,2.22,2.22,0,0,0-1.16.23.49.49,0,0,0-.24.42.45.45,0,0,0,.21.37,7.41,7.41,0,0,0,1.92.58,5.8,5.8,0,0,1,2.3.91,1.92,1.92,0,0,1,.64,1.54,2.35,2.35,0,0,1-.89,1.83,3.94,3.94,0,0,1-2.65.77,4.32,4.32,0,0,1-2.51-.64A3,3,0,0,1,134.91,277.08Z"/><path d="M143.5,275.3a4.17,4.17,0,0,1,.5-2,3.53,3.53,0,0,1,1.43-1.46,4.23,4.23,0,0,1,2.07-.51,3.89,3.89,0,0,1,4,4.05,4,4,0,0,1-1.13,2.92,3.84,3.84,0,0,1-2.87,1.16,4.5,4.5,0,0,1-2-.48,3.28,3.28,0,0,1-1.48-1.42A4.67,4.67,0,0,1,143.5,275.3Zm2.11.11a2.55,2.55,0,0,0,.55,1.77,1.78,1.78,0,0,0,2.7,0,2.59,2.59,0,0,0,.55-1.79,2.52,2.52,0,0,0-.55-1.75,1.78,1.78,0,0,0-2.7,0A2.55,2.55,0,0,0,145.61,275.41Z"/><path d="M153,271.52h1.9v1.06a3.06,3.06,0,0,1,2.42-1.24,2.69,2.69,0,0,1,1.3.31,2.37,2.37,0,0,1,.9.93,3.67,3.67,0,0,1,1.11-.93,2.73,2.73,0,0,1,1.26-.31,2.83,2.83,0,0,1,1.45.35,2.12,2.12,0,0,1,.89,1,4.47,4.47,0,0,1,.21,1.61v5h-2.06v-4.45a3.31,3.31,0,0,0-.21-1.49,1,1,0,0,0-.88-.44,1.42,1.42,0,0,0-.81.26,1.48,1.48,0,0,0-.55.77,5.66,5.66,0,0,0-.17,1.61v3.74h-2.06V275a5.57,5.57,0,0,0-.11-1.46.89.89,0,0,0-.34-.49,1,1,0,0,0-.62-.16,1.43,1.43,0,0,0-1.41,1,5.6,5.6,0,0,0-.16,1.61v3.78H153Z"/><path d="M175.14,276.82l2.06.35a3.37,3.37,0,0,1-1.25,1.71,3.63,3.63,0,0,1-2.14.59,3.48,3.48,0,0,1-3-1.32,4.47,4.47,0,0,1-.77-2.68,4.31,4.31,0,0,1,1-3,3.34,3.34,0,0,1,2.56-1.1,3.48,3.48,0,0,1,2.74,1.15,5.15,5.15,0,0,1,1,3.51h-5.16a2.06,2.06,0,0,0,.5,1.43,1.54,1.54,0,0,0,1.18.51,1.25,1.25,0,0,0,.82-.27A1.59,1.59,0,0,0,175.14,276.82Zm.12-2.08a2,2,0,0,0-.46-1.36,1.49,1.49,0,0,0-2.18,0,1.84,1.84,0,0,0-.43,1.33Z"/><path d="M186.06,279.3H184v-4a6.09,6.09,0,0,0-.13-1.63,1.16,1.16,0,0,0-.43-.58,1.28,1.28,0,0,0-.71-.2,1.67,1.67,0,0,0-1,.29,1.48,1.48,0,0,0-.59.78,7,7,0,0,0-.15,1.78v3.53H179v-7.78h1.91v1.14a3.11,3.11,0,0,1,2.56-1.32,3.17,3.17,0,0,1,1.25.25,2.09,2.09,0,0,1,.85.62,2.3,2.3,0,0,1,.4.87,6,6,0,0,1,.12,1.38Z"/><path d="M192.25,271.52h1.92v1.14a2.88,2.88,0,0,1,2.43-1.32,3,3,0,0,1,2.3,1.06,4.31,4.31,0,0,1,.94,3,4.45,4.45,0,0,1-1,3,3,3,0,0,1-2.31,1.08,2.64,2.64,0,0,1-1.17-.25,4.22,4.22,0,0,1-1.1-.88v3.92h-2.06Zm2,3.76a3,3,0,0,0,.52,1.93,1.59,1.59,0,0,0,1.27.63,1.49,1.49,0,0,0,1.19-.57,3,3,0,0,0,.48-1.89,2.87,2.87,0,0,0-.49-1.82A1.55,1.55,0,0,0,196,273a1.57,1.57,0,0,0-1.25.58A2.61,2.61,0,0,0,194.29,275.28Z"/><path d="M201.48,270.46v-1.9h2.05v1.9Zm0,8.84v-7.78h2.05v7.78Z"/><path d="M205.57,279.3V268.56h2.06v5.7l2.41-2.74h2.53l-2.66,2.84,2.85,4.94h-2.22l-1.95-3.5-1,1v2.49Z"/><path d="M213.91,279.3V268.56H216v5.7l2.41-2.74h2.53l-2.66,2.84,2.85,4.94h-2.22l-1.95-3.5-1,1v2.49Z"/><path d="M59.14,292.87H57.41l-.69-1.79H53.57l-.65,1.79H51.24L54.3,285H56Zm-2.93-3.12-1.08-2.92-1.07,2.92Z"/><path d="M60,292.87V285h1.51v7.88Z"/><path d="M63,292.87V285h1.51v7.88Z"/><path d="M68.61,291.24l1.51-.23a1.21,1.21,0,0,0,.39.67,1.36,1.36,0,0,0,.83.22,1.5,1.5,0,0,0,.88-.21.49.49,0,0,0,.2-.4.42.42,0,0,0-.11-.29,1.16,1.16,0,0,0-.5-.2,8.4,8.4,0,0,1-2.32-.73,1.48,1.48,0,0,1-.67-1.29,1.56,1.56,0,0,1,.58-1.24,2.73,2.73,0,0,1,1.82-.51,3.21,3.21,0,0,1,1.74.38,1.94,1.94,0,0,1,.78,1.13l-1.42.27a.89.89,0,0,0-.35-.52,1.33,1.33,0,0,0-.73-.17,1.66,1.66,0,0,0-.85.16.37.37,0,0,0-.17.31.32.32,0,0,0,.15.27,5.28,5.28,0,0,0,1.41.43,4.25,4.25,0,0,1,1.68.67,1.38,1.38,0,0,1,.48,1.12,1.72,1.72,0,0,1-.66,1.35,2.88,2.88,0,0,1-1.94.56,3.12,3.12,0,0,1-1.84-.47A2.13,2.13,0,0,1,68.61,291.24Z"/><path d="M77.87,287.16v1.2h-1v2.3a5.73,5.73,0,0,0,0,.82.35.35,0,0,0,.13.19.44.44,0,0,0,.26.07,1.86,1.86,0,0,0,.61-.14l.13,1.17a3.06,3.06,0,0,1-1.2.22,1.9,1.9,0,0,1-.73-.13,1,1,0,0,1-.48-.36,1.28,1.28,0,0,1-.22-.59,8,8,0,0,1,0-1.06v-2.49h-.7v-1.2h.7V286l1.51-.88v2Z"/><path d="M80.05,288.9l-1.37-.25a2.15,2.15,0,0,1,.79-1.22,2.89,2.89,0,0,1,1.68-.4,3.59,3.59,0,0,1,1.5.24,1.52,1.52,0,0,1,.7.61,3.15,3.15,0,0,1,.2,1.35l0,1.76a5.86,5.86,0,0,0,.08,1.11,2.74,2.74,0,0,0,.27.77h-1.5c0-.1-.08-.25-.14-.45s0-.15,0-.18a2.93,2.93,0,0,1-.83.57,2.5,2.5,0,0,1-.94.18,1.94,1.94,0,0,1-1.39-.47,1.6,1.6,0,0,1-.51-1.21,1.65,1.65,0,0,1,.23-.86,1.46,1.46,0,0,1,.65-.58,4.81,4.81,0,0,1,1.2-.36,7.71,7.71,0,0,0,1.47-.37V289a.8.8,0,0,0-.22-.62,1.3,1.3,0,0,0-.81-.18.9.9,0,0,0-1,.71Zm2,1.23c-.2.06-.5.14-.92.23a2.67,2.67,0,0,0-.82.26.63.63,0,0,0-.3.53.74.74,0,0,0,.24.55.85.85,0,0,0,.6.23,1.32,1.32,0,0,0,.78-.27.94.94,0,0,0,.36-.5,2.9,2.9,0,0,0,.06-.73Z"/><path d="M90.23,292.87H88.72V290a4.63,4.63,0,0,0-.1-1.19.83.83,0,0,0-.31-.42.92.92,0,0,0-.53-.15,1.23,1.23,0,0,0-.7.21,1.15,1.15,0,0,0-.43.57,4.91,4.91,0,0,0-.11,1.31v2.59H85v-5.71h1.4V288a2.3,2.3,0,0,1,1.88-1,2.24,2.24,0,0,1,.91.18,1.56,1.56,0,0,1,.63.46,1.62,1.62,0,0,1,.29.64,4.29,4.29,0,0,1,.09,1Z"/><path d="M91.22,291.24l1.52-.23a1.11,1.11,0,0,0,.39.67,1.34,1.34,0,0,0,.83.22,1.52,1.52,0,0,0,.88-.21.49.49,0,0,0,.2-.4.42.42,0,0,0-.11-.29,1.16,1.16,0,0,0-.5-.2,8.4,8.4,0,0,1-2.32-.73,1.49,1.49,0,0,1-.68-1.29,1.57,1.57,0,0,1,.59-1.24,2.72,2.72,0,0,1,1.81-.51,3.16,3.16,0,0,1,1.74.38,2,2,0,0,1,.79,1.13l-1.42.27a.93.93,0,0,0-.35-.52,1.33,1.33,0,0,0-.73-.17,1.63,1.63,0,0,0-.85.16.35.35,0,0,0-.17.31.32.32,0,0,0,.15.27,5.28,5.28,0,0,0,1.41.43,4.25,4.25,0,0,1,1.68.67,1.38,1.38,0,0,1,.47,1.12,1.74,1.74,0,0,1-.65,1.35A2.9,2.9,0,0,1,94,293a3.17,3.17,0,0,1-1.85-.47A2.17,2.17,0,0,1,91.22,291.24Z"/><path d="M100.93,286.39V285h1.51v1.4Zm0,6.48v-5.71h1.51v5.71Z"/><path d="M106.51,291.24,108,291a1.11,1.11,0,0,0,.39.67,1.31,1.31,0,0,0,.82.22,1.56,1.56,0,0,0,.89-.21.48.48,0,0,0,.19-.4.41.41,0,0,0-.1-.29,1.28,1.28,0,0,0-.51-.2,8.16,8.16,0,0,1-2.31-.73,1.49,1.49,0,0,1-.68-1.29,1.57,1.57,0,0,1,.59-1.24,2.7,2.7,0,0,1,1.81-.51,3.21,3.21,0,0,1,1.74.38,2,2,0,0,1,.79,1.13l-1.43.27a.87.87,0,0,0-.34-.52,1.36,1.36,0,0,0-.73-.17,1.7,1.7,0,0,0-.86.16.37.37,0,0,0-.17.31.32.32,0,0,0,.15.27,5.58,5.58,0,0,0,1.41.43,4.24,4.24,0,0,1,1.69.67,1.41,1.41,0,0,1,.47,1.12,1.72,1.72,0,0,1-.66,1.35,2.86,2.86,0,0,1-1.94.56,3.14,3.14,0,0,1-1.84-.47A2.17,2.17,0,0,1,106.51,291.24Z"/><path d="M112.45,287.16h1.6l1.37,4,1.33-4h1.56l-2,5.49-.36,1a4.58,4.58,0,0,1-.38.77,1.64,1.64,0,0,1-.41.42,1.82,1.82,0,0,1-.58.26,3,3,0,0,1-.77.09,4,4,0,0,1-.85-.09l-.14-1.18a4,4,0,0,0,.64.07,1,1,0,0,0,.78-.31,2.16,2.16,0,0,0,.39-.79Z"/><path d="M119.22,292.87V285h1.51v4.18l1.77-2h1.86l-2,2.09,2.09,3.62h-1.63l-1.43-2.57-.71.74v1.83Z"/><path d="M125.34,292.87V285h1.51v4.18l1.77-2h1.86l-1.95,2.09,2.09,3.62H129l-1.44-2.57-.7.74v1.83Z"/><path d="M134.82,291.05l1.5.25a2.45,2.45,0,0,1-.92,1.26,2.64,2.64,0,0,1-1.56.43,2.54,2.54,0,0,1-2.2-1,3.23,3.23,0,0,1-.57-2,3.15,3.15,0,0,1,.74-2.22,2.44,2.44,0,0,1,1.88-.81,2.53,2.53,0,0,1,2,.84,3.74,3.74,0,0,1,.7,2.58h-3.78a1.48,1.48,0,0,0,.37,1,1.14,1.14,0,0,0,.87.38.92.92,0,0,0,.59-.2A1.24,1.24,0,0,0,134.82,291.05Zm.08-1.52a1.43,1.43,0,0,0-.34-1,1,1,0,0,0-.78-.34,1.06,1.06,0,0,0-.82.36,1.38,1.38,0,0,0-.31,1Z"/><path d="M137.63,292.87V285h1.51v7.88Z"/><path d="M140,287.16h.83v-.43a2.64,2.64,0,0,1,.16-1.07,1.2,1.2,0,0,1,.56-.58,2.16,2.16,0,0,1,1-.22,4.14,4.14,0,0,1,1.26.19l-.2,1.05A3.4,3.4,0,0,0,143,286a.62.62,0,0,0-.47.15.86.86,0,0,0-.15.59v.4h1.13v1.19h-1.13v4.52h-1.51v-4.52H140Z"/><path d="M147.65,291.05l1.51.25a2.51,2.51,0,0,1-.92,1.26,2.68,2.68,0,0,1-1.56.43,2.56,2.56,0,0,1-2.21-1,3.29,3.29,0,0,1-.56-2,3.15,3.15,0,0,1,.74-2.22,2.44,2.44,0,0,1,1.88-.81,2.53,2.53,0,0,1,2,.84,3.69,3.69,0,0,1,.71,2.58h-3.78a1.52,1.52,0,0,0,.36,1,1.14,1.14,0,0,0,.87.38.92.92,0,0,0,.6-.2A1.16,1.16,0,0,0,147.65,291.05Zm.09-1.52a1.43,1.43,0,0,0-.34-1,1,1,0,0,0-.78-.34,1.06,1.06,0,0,0-.82.36,1.43,1.43,0,0,0-.32,1Z"/><path d="M150.47,292.87V285H152v7.88Z"/><path d="M156.14,287.16v1.2h-1v2.3a5.73,5.73,0,0,0,0,.82.35.35,0,0,0,.13.19.44.44,0,0,0,.26.07,1.77,1.77,0,0,0,.6-.14l.13,1.17a3,3,0,0,1-1.19.22,2,2,0,0,1-.74-.13,1.13,1.13,0,0,1-.48-.36,1.4,1.4,0,0,1-.21-.59,7.39,7.39,0,0,1,0-1.06v-2.49h-.69v-1.2h.69V286l1.52-.88v2Z"/><path d="M160.49,291.05l1.5.25a2.44,2.44,0,0,1-.91,1.26,2.69,2.69,0,0,1-1.57.43,2.55,2.55,0,0,1-2.2-1,3.22,3.22,0,0,1-.56-2,3.1,3.1,0,0,1,.74-2.22,2.42,2.42,0,0,1,1.87-.81,2.53,2.53,0,0,1,2,.84,3.69,3.69,0,0,1,.7,2.58h-3.78a1.52,1.52,0,0,0,.37,1,1.14,1.14,0,0,0,.87.38.9.9,0,0,0,.59-.2A1.11,1.11,0,0,0,160.49,291.05Zm.09-1.52a1.48,1.48,0,0,0-.34-1,1,1,0,0,0-.79-.34,1,1,0,0,0-.81.36,1.38,1.38,0,0,0-.32,1Z"/><path d="M165.92,287.16v1.2h-1v2.3a5.73,5.73,0,0,0,0,.82.35.35,0,0,0,.13.19.44.44,0,0,0,.26.07,1.77,1.77,0,0,0,.6-.14l.13,1.17a3,3,0,0,1-1.19.22,1.86,1.86,0,0,1-.73-.13,1,1,0,0,1-.48-.36,1.28,1.28,0,0,1-.22-.59,7.39,7.39,0,0,1,0-1.06v-2.49h-.69v-1.2h.69V286l1.52-.88v2Z"/><path d="M173.33,291.05l1.5.25a2.45,2.45,0,0,1-.92,1.26,2.64,2.64,0,0,1-1.56.43,2.54,2.54,0,0,1-2.2-1,3.23,3.23,0,0,1-.57-2,3.15,3.15,0,0,1,.74-2.22,2.44,2.44,0,0,1,1.88-.81,2.53,2.53,0,0,1,2,.84,3.74,3.74,0,0,1,.7,2.58h-3.78a1.48,1.48,0,0,0,.37,1,1.14,1.14,0,0,0,.87.38.92.92,0,0,0,.59-.2A1.24,1.24,0,0,0,173.33,291.05Zm.08-1.52a1.43,1.43,0,0,0-.34-1,1,1,0,0,0-.78-.34,1.06,1.06,0,0,0-.82.36,1.38,1.38,0,0,0-.31,1Z"/><path d="M177.59,292.87h-1.51v-5.71h1.4V288a2.31,2.31,0,0,1,.65-.75,1.11,1.11,0,0,1,.65-.19,1.92,1.92,0,0,1,1,.29l-.46,1.31a1.39,1.39,0,0,0-.71-.24.81.81,0,0,0-.54.17,1.24,1.24,0,0,0-.35.63,9.44,9.44,0,0,0-.12,1.91Z"/><path d="M182.82,287.16h.84v-.43a2.86,2.86,0,0,1,.15-1.07,1.2,1.2,0,0,1,.56-.58,2.16,2.16,0,0,1,1-.22,4.14,4.14,0,0,1,1.26.19l-.2,1.05a3.4,3.4,0,0,0-.69-.08.62.62,0,0,0-.47.15.86.86,0,0,0-.15.59v.4h1.13v1.19h-1.13v4.52h-1.5v-4.52h-.84Z"/><path d="M186.79,289.93a3.16,3.16,0,0,1,.37-1.45,2.6,2.6,0,0,1,1.05-1.08,3.22,3.22,0,0,1,1.52-.37,2.85,2.85,0,0,1,2.12.84,3.15,3.15,0,0,1,0,4.27,2.79,2.79,0,0,1-2.1.85,3.23,3.23,0,0,1-1.49-.35,2.44,2.44,0,0,1-1.09-1A3.55,3.55,0,0,1,186.79,289.93Zm1.55.08a1.87,1.87,0,0,0,.4,1.3,1.33,1.33,0,0,0,2,0,1.93,1.93,0,0,0,.4-1.31,1.91,1.91,0,0,0-.4-1.29,1.33,1.33,0,0,0-2,0A1.89,1.89,0,0,0,188.34,290Z"/><path d="M195.31,292.87H193.8v-5.71h1.4V288a2.31,2.31,0,0,1,.65-.75,1.11,1.11,0,0,1,.65-.19,1.92,1.92,0,0,1,1,.29l-.47,1.31a1.33,1.33,0,0,0-.7-.24.81.81,0,0,0-.54.17,1.24,1.24,0,0,0-.35.63,9.44,9.44,0,0,0-.12,1.91Z"/><path d="M198.08,292.87V285h1.51v2.84a2.12,2.12,0,0,1,1.65-.8,2.18,2.18,0,0,1,1.72.76,3.08,3.08,0,0,1,.69,2.16,3.29,3.29,0,0,1-.7,2.25,2.16,2.16,0,0,1-1.69.79,2.1,2.1,0,0,1-1-.24,2.24,2.24,0,0,1-.82-.72v.84Zm1.5-3a2.38,2.38,0,0,0,.28,1.31,1.18,1.18,0,0,0,1,.6,1.08,1.08,0,0,0,.85-.42,2.16,2.16,0,0,0,.35-1.35,2.28,2.28,0,0,0-.35-1.41,1.12,1.12,0,0,0-.91-.43,1.14,1.14,0,0,0-.9.42A1.94,1.94,0,0,0,199.58,289.89Z"/><path d="M208.61,292.87V292a2.09,2.09,0,0,1-.81.72,2.27,2.27,0,0,1-1.08.26,2.09,2.09,0,0,1-1-.25A1.51,1.51,0,0,1,205,292a3.25,3.25,0,0,1-.2-1.26v-3.61h1.51v2.62a8,8,0,0,0,.08,1.48.89.89,0,0,0,.3.43,1,1,0,0,0,.56.16,1.24,1.24,0,0,0,.7-.22,1.11,1.11,0,0,0,.42-.52,6.5,6.5,0,0,0,.11-1.54v-2.41H210v5.71Z"/><path d="M216.81,292.87h-1.4V292a2.36,2.36,0,0,1-.82.73,2.25,2.25,0,0,1-1,.23,2.17,2.17,0,0,1-1.69-.79,3.25,3.25,0,0,1-.7-2.21,3.2,3.2,0,0,1,.68-2.2,2.22,2.22,0,0,1,1.73-.76,2.14,2.14,0,0,1,1.65.8V285h1.51Zm-4-3a2.57,2.57,0,0,0,.26,1.32,1.14,1.14,0,0,0,1.9.15,2,2,0,0,0,.37-1.33,2.21,2.21,0,0,0-.36-1.41,1.1,1.1,0,0,0-.9-.43,1.14,1.14,0,0,0-.9.42A1.9,1.9,0,0,0,212.78,289.89Z"/><path d="M220.92,287.16v1.2h-1v2.3a5.73,5.73,0,0,0,0,.82.37.37,0,0,0,.14.19.41.41,0,0,0,.25.07,1.86,1.86,0,0,0,.61-.14l.13,1.17a3,3,0,0,1-1.19.22,1.92,1.92,0,0,1-.74-.13,1,1,0,0,1-.48-.36,1.4,1.4,0,0,1-.21-.59,7.39,7.39,0,0,1,0-1.06v-2.49h-.69v-1.2h.69V286l1.51-.88v2Z"/><path d="M109.28,248.77a4.12,4.12,0,0,1,3.41,1.55q1.47,1.86,1.47,6.13t-1.48,6.13a4.11,4.11,0,0,1-3.4,1.54,4.33,4.33,0,0,1-3.54-1.69c-.89-1.12-1.34-3.13-1.34-6s.49-4.87,1.47-6.12A4.12,4.12,0,0,1,109.28,248.77Zm0,2.39a1.43,1.43,0,0,0-.93.33,2.19,2.19,0,0,0-.64,1.19,16.4,16.4,0,0,0-.3,3.77,16.13,16.13,0,0,0,.27,3.63,2.59,2.59,0,0,0,.67,1.32,1.43,1.43,0,0,0,.93.33,1.39,1.39,0,0,0,.93-.34,2.19,2.19,0,0,0,.64-1.19,25,25,0,0,0,0-7.39,2.59,2.59,0,0,0-.67-1.32A1.43,1.43,0,0,0,109.28,251.16Z"/><path d="M121,248.77a4.12,4.12,0,0,1,3.41,1.55q1.47,1.86,1.47,6.13t-1.48,6.13a4.11,4.11,0,0,1-3.4,1.54,4.32,4.32,0,0,1-3.54-1.69c-.9-1.12-1.34-3.13-1.34-6s.49-4.87,1.47-6.12A4.12,4.12,0,0,1,121,248.77Zm0,2.39a1.48,1.48,0,0,0-.94.33,2.25,2.25,0,0,0-.63,1.19,16.4,16.4,0,0,0-.3,3.77,16.13,16.13,0,0,0,.27,3.63,2.59,2.59,0,0,0,.67,1.32,1.43,1.43,0,0,0,.93.33,1.39,1.39,0,0,0,.93-.34,2.25,2.25,0,0,0,.64-1.19,16.94,16.94,0,0,0,.29-3.75,16.35,16.35,0,0,0-.26-3.64,2.59,2.59,0,0,0-.67-1.32A1.45,1.45,0,0,0,121,251.16Z"/><path d="M133.89,259.85V257h5.66v2.88Z"/><path d="M156.16,261.18v2.68h-10.1a7.1,7.1,0,0,1,1-2.88,19.66,19.66,0,0,1,3.24-3.6,20.06,20.06,0,0,0,2.39-2.46,3.16,3.16,0,0,0,.6-1.77,2,2,0,0,0-.52-1.48,2.22,2.22,0,0,0-2.87,0,2.78,2.78,0,0,0-.61,1.8l-2.87-.28A4.72,4.72,0,0,1,148,249.8a5.4,5.4,0,0,1,3.38-1,4.91,4.91,0,0,1,3.5,1.2,3.92,3.92,0,0,1,1.27,3,5,5,0,0,1-.37,1.93,7.71,7.71,0,0,1-1.15,1.93,18.79,18.79,0,0,1-1.89,1.91c-.9.84-1.48,1.39-1.72,1.66a4.8,4.8,0,0,0-.59.8Z"/><path d="M163.76,263.86v-3h-6.15v-2.53l6.52-9.54h2.42v9.53h1.86v2.54h-1.86v3Zm0-5.56v-5.13l-3.46,5.13Z"/><path d="M183.85,301.49l.29-1.46h-.57v-.51h.68l.25-1.24h-.93v-.51h1l.3-1.46h.51l-.3,1.46h1.08l.3-1.46H187l-.29,1.46h.59v.51h-.69l-.26,1.24h1V300h-1.05l-.3,1.46h-.51l.29-1.46h-1.07l-.3,1.46Zm.91-2h1.07l.26-1.24H185Z"/><path d="M187.6,300.32l.61-.1a.81.81,0,0,0,.29.56,1,1,0,0,0,.65.2,1,1,0,0,0,.63-.18.5.5,0,0,0,.21-.4.39.39,0,0,0-.19-.33,3,3,0,0,0-.63-.21,5.53,5.53,0,0,1-.93-.29.89.89,0,0,1-.53-.83.84.84,0,0,1,.11-.45.92.92,0,0,1,.3-.35,1.29,1.29,0,0,1,.39-.18,1.83,1.83,0,0,1,.53-.07,2.11,2.11,0,0,1,.75.12,1,1,0,0,1,.48.34,1.31,1.31,0,0,1,.21.56l-.6.08a.69.69,0,0,0-.24-.44.9.9,0,0,0-.55-.15,1,1,0,0,0-.61.13.43.43,0,0,0-.18.33.3.3,0,0,0,.08.22.45.45,0,0,0,.23.16,4.46,4.46,0,0,0,.55.16,7.74,7.74,0,0,1,.91.29.91.91,0,0,1,.4.32.86.86,0,0,1,.15.52,1,1,0,0,1-.18.58,1,1,0,0,1-.52.42,1.87,1.87,0,0,1-.76.15,1.66,1.66,0,0,1-1.08-.29A1.39,1.39,0,0,1,187.6,300.32Z"/><path d="M191.32,302.8l-.07-.58a1.29,1.29,0,0,0,.36.06.72.72,0,0,0,.32-.07.64.64,0,0,0,.21-.19,4.91,4.91,0,0,0,.18-.46.77.77,0,0,1,.06-.15L191,297.77h.66l.76,2.1c.1.27.18.55.26.84.07-.28.16-.55.25-.82l.78-2.12h.62L193,301.46a7.91,7.91,0,0,1-.35.83,1.2,1.2,0,0,1-.38.44.84.84,0,0,1-.5.14A1.25,1.25,0,0,1,191.32,302.8Z"/><path d="M194.85,301.4v-5h.62v2.86l1.45-1.48h.8l-1.39,1.35,1.53,2.28h-.76l-1.2-1.85-.43.41v1.44Z"/><path d="M198.35,301.4v-5H199v2.86l1.45-1.48h.8l-1.39,1.35,1.53,2.28h-.76l-1.2-1.85L199,300v1.44Z"/><path d="M204.33,300.23l.64.08a1.6,1.6,0,0,1-.56.87,1.71,1.71,0,0,1-1,.3,1.64,1.64,0,0,1-1.26-.49,1.9,1.9,0,0,1-.47-1.37,2,2,0,0,1,.48-1.42,1.58,1.58,0,0,1,1.22-.51,1.56,1.56,0,0,1,1.19.49,2,2,0,0,1,.46,1.4v.16h-2.71a1.35,1.35,0,0,0,.34.92,1,1,0,0,0,.76.32.92.92,0,0,0,.57-.18A1.17,1.17,0,0,0,204.33,300.23Zm-2-1h2a1.22,1.22,0,0,0-.23-.69.93.93,0,0,0-.76-.35,1,1,0,0,0-.72.28A1.13,1.13,0,0,0,202.31,299.24Z"/><path d="M205.73,301.4v-5h.61v5Z"/><path d="M207.3,301.4v-3.63h.55v.51a1.24,1.24,0,0,1,.45-.43,1.28,1.28,0,0,1,.65-.16,1.12,1.12,0,0,1,.66.17.87.87,0,0,1,.36.46,1.32,1.32,0,0,1,1.13-.63,1.11,1.11,0,0,1,.83.3,1.28,1.28,0,0,1,.29.92v2.49h-.62v-2.29a1.7,1.7,0,0,0-.06-.53.53.53,0,0,0-.21-.26.76.76,0,0,0-.37-.1.87.87,0,0,0-.64.26,1.11,1.11,0,0,0-.25.81v2.11h-.62V299a1,1,0,0,0-.15-.61.56.56,0,0,0-.49-.21.92.92,0,0,0-.48.14.81.81,0,0,0-.32.4,2.4,2.4,0,0,0-.1.76v1.88Z"/><path d="M215.5,301a2.21,2.21,0,0,1-.66.41,1.91,1.91,0,0,1-.68.12,1.29,1.29,0,0,1-.92-.29,1,1,0,0,1-.32-.75A1,1,0,0,1,213,300a1,1,0,0,1,.32-.36,1.6,1.6,0,0,1,.44-.2,4.79,4.79,0,0,1,.55-.09,6,6,0,0,0,1.1-.21v-.16a.66.66,0,0,0-.18-.53,1,1,0,0,0-.7-.21,1.1,1.1,0,0,0-.64.15.93.93,0,0,0-.3.54l-.6-.08a1.4,1.4,0,0,1,.27-.63,1.14,1.14,0,0,1,.54-.36,2.67,2.67,0,0,1,1.58,0,1.06,1.06,0,0,1,.43.27,1,1,0,0,1,.19.42,3.67,3.67,0,0,1,0,.57v.82a8.12,8.12,0,0,0,0,1.09,1.38,1.38,0,0,0,.15.43h-.64A1.48,1.48,0,0,1,215.5,301Zm-.05-1.37a4.49,4.49,0,0,1-1,.23,3.25,3.25,0,0,0-.54.12.68.68,0,0,0-.24.2.52.52,0,0,0-.08.3.54.54,0,0,0,.18.41.82.82,0,0,0,.55.16,1.33,1.33,0,0,0,.63-.15,1.06,1.06,0,0,0,.41-.43,1.57,1.57,0,0,0,.1-.61Z"/><path d="M217.17,301.4v-3.15h-.55v-.48h.55v-.38a1.85,1.85,0,0,1,.06-.55.81.81,0,0,1,.32-.39,1.12,1.12,0,0,1,.62-.14,2.43,2.43,0,0,1,.58.06l-.09.53-.37,0a.52.52,0,0,0-.39.12.64.64,0,0,0-.12.45v.33h.71v.48h-.71v3.15Z"/><path d="M219,297.1v-.71h.61v.71Zm0,4.3v-3.63h.61v3.63Z"/><path d="M222.89,301a2.21,2.21,0,0,1-.66.41,1.87,1.87,0,0,1-.68.12,1.32,1.32,0,0,1-.92-.29,1,1,0,0,1-.32-.75,1,1,0,0,1,.12-.48,1.12,1.12,0,0,1,.32-.36,1.54,1.54,0,0,1,.45-.2l.54-.09a6,6,0,0,0,1.1-.21v-.16a.7.7,0,0,0-.17-.53,1,1,0,0,0-.7-.21,1.08,1.08,0,0,0-.64.15.93.93,0,0,0-.31.54l-.6-.08a1.4,1.4,0,0,1,.27-.63,1.2,1.2,0,0,1,.54-.36,2.33,2.33,0,0,1,.83-.13,2.2,2.2,0,0,1,.75.11.94.94,0,0,1,.43.27,1,1,0,0,1,.19.42,3.67,3.67,0,0,1,0,.57v.82a8.12,8.12,0,0,0,0,1.09,1.4,1.4,0,0,0,.16.43H223A1.48,1.48,0,0,1,222.89,301Zm0-1.37a4.36,4.36,0,0,1-1,.23,2.86,2.86,0,0,0-.53.12.63.63,0,0,0-.25.2.61.61,0,0,0-.08.3.52.52,0,0,0,.19.41.77.77,0,0,0,.54.16,1.28,1.28,0,0,0,.63-.15,1,1,0,0,0,.41-.43,1.4,1.4,0,0,0,.1-.61Z"/><path d="M226.9,300.23l.64.08a1.6,1.6,0,0,1-.56.87,1.71,1.71,0,0,1-1,.3,1.64,1.64,0,0,1-1.26-.49,1.9,1.9,0,0,1-.47-1.37,2,2,0,0,1,.47-1.42,1.6,1.6,0,0,1,1.23-.51,1.53,1.53,0,0,1,1.18.49,2,2,0,0,1,.47,1.4,1,1,0,0,1,0,.16h-2.7a1.4,1.4,0,0,0,.33.92,1,1,0,0,0,.76.32.93.93,0,0,0,.58-.18A1.17,1.17,0,0,0,226.9,300.23Zm-2-1h2a1.22,1.22,0,0,0-.24-.69.92.92,0,0,0-.76-.35,1,1,0,0,0-.71.28A1.13,1.13,0,0,0,224.88,299.24Z"/><path d="M228.31,301.4v-3.63h.55v.52a1.31,1.31,0,0,1,1.16-.6,1.46,1.46,0,0,1,.6.12,1,1,0,0,1,.41.31,1.08,1.08,0,0,1,.19.45,2.8,2.8,0,0,1,0,.6v2.23h-.62v-2.21a1.58,1.58,0,0,0-.07-.56.65.65,0,0,0-.25-.3.89.89,0,0,0-.43-.11,1,1,0,0,0-.68.25,1.24,1.24,0,0,0-.29.95v2Z"/></g></g></svg>